<?xml version="1.0" encoding="UTF-8" standalone="no"?>
<!-- Created with Inkscape (http://www.inkscape.org/) -->

<svg
   xmlns:dc="http://purl.org/dc/elements/1.1/"
   xmlns:cc="http://creativecommons.org/ns#"
   xmlns:rdf="http://www.w3.org/1999/02/22-rdf-syntax-ns#"
   xmlns:svg="http://www.w3.org/2000/svg"
   xmlns="http://www.w3.org/2000/svg"
   xmlns:sodipodi="http://sodipodi.sourceforge.net/DTD/sodipodi-0.dtd"
   xmlns:inkscape="http://www.inkscape.org/namespaces/inkscape"
   width="744.09448819"
   height="1052.3622047"
   id="svg6523"
   version="1.1"
   inkscape:version="0.47pre4 r22446"
   sodipodi:docname="New document 18">
  <defs
     id="defs6525">
    <inkscape:perspective
       sodipodi:type="inkscape:persp3d"
       inkscape:vp_x="0 : 526.18109 : 1"
       inkscape:vp_y="0 : 1000 : 0"
       inkscape:vp_z="744.09448 : 526.18109 : 1"
       inkscape:persp3d-origin="372.04724 : 350.78739 : 1"
       id="perspective6531" />
    <inkscape:perspective
       id="perspective6456"
       inkscape:persp3d-origin="0.5 : 0.33333333 : 1"
       inkscape:vp_z="1 : 0.5 : 1"
       inkscape:vp_y="0 : 1000 : 0"
       inkscape:vp_x="0 : 0.5 : 1"
       sodipodi:type="inkscape:persp3d" />
    <marker
       inkscape:stockid="Arrow2Lend"
       orient="auto"
       refY="0"
       refX="0"
       id="Arrow2Lend"
       style="overflow:visible">
      <path
         id="path3834"
         style="font-size:12px;fill-rule:evenodd;stroke-width:0.625;stroke-linejoin:round"
         d="M 8.7185878,4.0337352 -2.2072895,0.01601326 8.7185884,-4.0017078 c -1.7454984,2.3720609 -1.7354408,5.6174519 -6e-7,8.035443 z"
         transform="matrix(-1.1,0,0,-1.1,-1.1,0)" />
    </marker>
    <marker
       inkscape:stockid="Arrow2Lend"
       orient="auto"
       refY="0"
       refX="0"
       id="marker6462"
       style="overflow:visible">
      <path
         id="path6464"
         style="font-size:12px;fill-rule:evenodd;stroke-width:0.625;stroke-linejoin:round"
         d="M 8.7185878,4.0337352 -2.2072895,0.01601326 8.7185884,-4.0017078 c -1.7454984,2.3720609 -1.7354408,5.6174519 -6e-7,8.035443 z"
         transform="matrix(-1.1,0,0,-1.1,-1.1,0)" />
    </marker>
    <marker
       inkscape:stockid="Arrow2Lend"
       orient="auto"
       refY="0"
       refX="0"
       id="marker6466"
       style="overflow:visible">
      <path
         id="path6468"
         style="font-size:12px;fill-rule:evenodd;stroke-width:0.625;stroke-linejoin:round"
         d="M 8.7185878,4.0337352 -2.2072895,0.01601326 8.7185884,-4.0017078 c -1.7454984,2.3720609 -1.7354408,5.6174519 -6e-7,8.035443 z"
         transform="matrix(-1.1,0,0,-1.1,-1.1,0)" />
    </marker>
    <marker
       inkscape:stockid="Arrow2Lend"
       orient="auto"
       refY="0"
       refX="0"
       id="marker6470"
       style="overflow:visible">
      <path
         id="path6472"
         style="font-size:12px;fill-rule:evenodd;stroke-width:0.625;stroke-linejoin:round"
         d="M 8.7185878,4.0337352 -2.2072895,0.01601326 8.7185884,-4.0017078 c -1.7454984,2.3720609 -1.7354408,5.6174519 -6e-7,8.035443 z"
         transform="matrix(-1.1,0,0,-1.1,-1.1,0)" />
    </marker>
    <marker
       inkscape:stockid="Arrow2Lend"
       orient="auto"
       refY="0"
       refX="0"
       id="marker6474"
       style="overflow:visible">
      <path
         id="path6476"
         style="font-size:12px;fill-rule:evenodd;stroke-width:0.625;stroke-linejoin:round"
         d="M 8.7185878,4.0337352 -2.2072895,0.01601326 8.7185884,-4.0017078 c -1.7454984,2.3720609 -1.7354408,5.6174519 -6e-7,8.035443 z"
         transform="matrix(-1.1,0,0,-1.1,-1.1,0)" />
    </marker>
    <marker
       inkscape:stockid="Arrow2Lend"
       orient="auto"
       refY="0"
       refX="0"
       id="marker6478"
       style="overflow:visible">
      <path
         id="path6480"
         style="font-size:12px;fill-rule:evenodd;stroke-width:0.625;stroke-linejoin:round"
         d="M 8.7185878,4.0337352 -2.2072895,0.01601326 8.7185884,-4.0017078 c -1.7454984,2.3720609 -1.7354408,5.6174519 -6e-7,8.035443 z"
         transform="matrix(-1.1,0,0,-1.1,-1.1,0)" />
    </marker>
    <marker
       inkscape:stockid="Arrow2Lend"
       orient="auto"
       refY="0"
       refX="0"
       id="marker6482"
       style="overflow:visible">
      <path
         id="path6484"
         style="font-size:12px;fill-rule:evenodd;stroke-width:0.625;stroke-linejoin:round"
         d="M 8.7185878,4.0337352 -2.2072895,0.01601326 8.7185884,-4.0017078 c -1.7454984,2.3720609 -1.7354408,5.6174519 -6e-7,8.035443 z"
         transform="matrix(-1.1,0,0,-1.1,-1.1,0)" />
    </marker>
    <marker
       inkscape:stockid="Arrow2Lend"
       orient="auto"
       refY="0"
       refX="0"
       id="marker6486"
       style="overflow:visible">
      <path
         id="path6488"
         style="font-size:12px;fill-rule:evenodd;stroke-width:0.625;stroke-linejoin:round"
         d="M 8.7185878,4.0337352 -2.2072895,0.01601326 8.7185884,-4.0017078 c -1.7454984,2.3720609 -1.7354408,5.6174519 -6e-7,8.035443 z"
         transform="matrix(-1.1,0,0,-1.1,-1.1,0)" />
    </marker>
    <marker
       inkscape:stockid="Arrow2Lend"
       orient="auto"
       refY="0"
       refX="0"
       id="marker6490"
       style="overflow:visible">
      <path
         id="path6492"
         style="font-size:12px;fill-rule:evenodd;stroke-width:0.625;stroke-linejoin:round"
         d="M 8.7185878,4.0337352 -2.2072895,0.01601326 8.7185884,-4.0017078 c -1.7454984,2.3720609 -1.7354408,5.6174519 -6e-7,8.035443 z"
         transform="matrix(-1.1,0,0,-1.1,-1.1,0)" />
    </marker>
    <marker
       inkscape:stockid="Arrow2Lend"
       orient="auto"
       refY="0"
       refX="0"
       id="marker6494"
       style="overflow:visible">
      <path
         id="path6496"
         style="font-size:12px;fill-rule:evenodd;stroke-width:0.625;stroke-linejoin:round"
         d="M 8.7185878,4.0337352 -2.2072895,0.01601326 8.7185884,-4.0017078 c -1.7454984,2.3720609 -1.7354408,5.6174519 -6e-7,8.035443 z"
         transform="matrix(-1.1,0,0,-1.1,-1.1,0)" />
    </marker>
  </defs>
  <sodipodi:namedview
     id="base"
     pagecolor="#ffffff"
     bordercolor="#666666"
     borderopacity="1.0"
     inkscape:pageopacity="0.0"
     inkscape:pageshadow="2"
     inkscape:zoom="0.35"
     inkscape:cx="375"
     inkscape:cy="520"
     inkscape:document-units="px"
     inkscape:current-layer="layer1"
     showgrid="false"
     inkscape:window-width="607"
     inkscape:window-height="489"
     inkscape:window-x="263"
     inkscape:window-y="166"
     inkscape:window-maximized="0" />
  <metadata
     id="metadata6528">
    <rdf:RDF>
      <cc:Work
         rdf:about="">
        <dc:format>image/svg+xml</dc:format>
        <dc:type
           rdf:resource="http://purl.org/dc/dcmitype/StillImage" />
        <dc:title></dc:title>
      </cc:Work>
    </rdf:RDF>
  </metadata>
  <g
     inkscape:label="Layer 1"
     inkscape:groupmode="layer"
     id="layer1">
    <g
       transform="translate(128.05104,-300.33072)"
       id="g6422">
      <g
         id="g6350">
        <g
           transform="translate(27.390646,318.55381)"
           id="g5437">
          <path
             transform="translate(-43.292961,34.523851)"
             d="m 197.14286,401.64789 c 0,12.22916 -9.9137,22.14285 -22.14286,22.14285 -12.22916,0 -22.14286,-9.91369 -22.14286,-22.14285 0,-12.22916 9.9137,-22.14286 22.14286,-22.14286 12.22916,0 22.14286,9.9137 22.14286,22.14286 z"
             sodipodi:ry="22.142857"
             sodipodi:rx="22.142857"
             sodipodi:cy="401.64789"
             sodipodi:cx="175"
             id="path5439"
             style="opacity:0.76799999;fill:none;stroke:#000000;stroke-width:2;stroke-miterlimit:4;stroke-opacity:1;stroke-dasharray:none"
             sodipodi:type="arc" />
          <path
             d="m 197.14286,401.64789 c 0,12.22916 -9.9137,22.14285 -22.14286,22.14285 -12.22916,0 -22.14286,-9.91369 -22.14286,-22.14285 0,-12.22916 9.9137,-22.14286 22.14286,-22.14286 12.22916,0 22.14286,9.9137 22.14286,22.14286 z"
             sodipodi:ry="22.142857"
             sodipodi:rx="22.142857"
             sodipodi:cy="401.64789"
             sodipodi:cx="175"
             id="path5441"
             style="opacity:0.76799999;fill:none;stroke:#000000;stroke-width:2;stroke-miterlimit:4;stroke-opacity:1;stroke-dasharray:none"
             sodipodi:type="arc"
             transform="translate(-43.295899,-122.14285)" />
          <path
             transform="translate(-43.298836,-43.809483)"
             sodipodi:type="arc"
             style="opacity:0.76799999;fill:none;stroke:#000000;stroke-width:2;stroke-miterlimit:4;stroke-opacity:1;stroke-dasharray:none"
             id="path5443"
             sodipodi:cx="175"
             sodipodi:cy="401.64789"
             sodipodi:rx="22.142857"
             sodipodi:ry="22.142857"
             d="m 197.14286,401.64789 c 0,12.22916 -9.9137,22.14285 -22.14286,22.14285 -12.22916,0 -22.14286,-9.91369 -22.14286,-22.14285 0,-12.22916 9.9137,-22.14286 22.14286,-22.14286 12.22916,0 22.14286,9.9137 22.14286,22.14286 z" />
          <path
             sodipodi:type="arc"
             style="opacity:0.76799999;fill:none;stroke:#000000;stroke-width:2;stroke-miterlimit:4;stroke-opacity:1;stroke-dasharray:none"
             id="path5445"
             sodipodi:cx="175"
             sodipodi:cy="401.64789"
             sodipodi:rx="22.142857"
             sodipodi:ry="22.142857"
             d="m 197.14286,401.64789 c 0,12.22916 -9.9137,22.14285 -22.14286,22.14285 -12.22916,0 -22.14286,-9.91369 -22.14286,-22.14285 0,-12.22916 9.9137,-22.14286 22.14286,-22.14286 12.22916,0 22.14286,9.9137 22.14286,22.14286 z"
             transform="translate(-43.301773,112.85716)" />
          <path
             inkscape:connection-end="#path2842"
             inkscape:connection-start="#path2818-0"
             inkscape:connector-type="polyline"
             id="path5447"
             d="m 131.70327,301.64789 -0.001,34.04766"
             style="fill:none;stroke:#000000;stroke-width:1;stroke-linecap:butt;stroke-linejoin:miter;stroke-miterlimit:4;stroke-opacity:1;stroke-dasharray:none;marker-end:url(#Arrow2Lend)" />
          <path
             inkscape:connection-end="#path2844"
             inkscape:connection-start="#path2818"
             inkscape:connector-type="polyline"
             id="path5449"
             d="m 131.70455,458.3146 -0.004,34.04759"
             style="fill:none;stroke:#000000;stroke-width:1px;stroke-linecap:butt;stroke-linejoin:miter;stroke-opacity:1;marker-end:url(#Arrow2Lend)" />
          <path
             inkscape:connector-type="polyline"
             id="path5451"
             d="m 131.68177,379.57706 0,34.22051"
             style="fill:none;stroke:#000000;stroke-width:1;stroke-linecap:butt;stroke-linejoin:miter;stroke-miterlimit:4;stroke-opacity:1;stroke-dasharray:none;marker-end:url(#Arrow2Lend)" />
          <path
             sodipodi:type="arc"
             style="opacity:0.76799999;fill:none;stroke:#000000;stroke-width:2;stroke-miterlimit:4;stroke-opacity:1;stroke-dasharray:none"
             id="path5453"
             sodipodi:cx="175"
             sodipodi:cy="401.64789"
             sodipodi:rx="22.142857"
             sodipodi:ry="22.142857"
             d="m 197.14286,401.64789 c 0,12.22916 -9.9137,22.14285 -22.14286,22.14285 -12.22916,0 -22.14286,-9.91369 -22.14286,-22.14285 0,-12.22916 9.9137,-22.14286 22.14286,-22.14286 12.22916,0 22.14286,9.9137 22.14286,22.14286 z"
             transform="translate(33.849896,34.523851)" />
          <path
             transform="translate(33.846958,-122.14285)"
             sodipodi:type="arc"
             style="opacity:0.76799999;fill:none;stroke:#000000;stroke-width:2;stroke-miterlimit:4;stroke-opacity:1;stroke-dasharray:none"
             id="path5455"
             sodipodi:cx="175"
             sodipodi:cy="401.64789"
             sodipodi:rx="22.142857"
             sodipodi:ry="22.142857"
             d="m 197.14286,401.64789 c 0,12.22916 -9.9137,22.14285 -22.14286,22.14285 -12.22916,0 -22.14286,-9.91369 -22.14286,-22.14285 0,-12.22916 9.9137,-22.14286 22.14286,-22.14286 12.22916,0 22.14286,9.9137 22.14286,22.14286 z" />
          <path
             inkscape:connection-end="#path5016"
             inkscape:connection-start="#path2818"
             inkscape:connector-type="polyline"
             id="path5457"
             d="m 153.8499,436.17174 32.85714,0"
             style="fill:none;stroke:#000000;stroke-width:1px;stroke-linecap:butt;stroke-linejoin:miter;stroke-opacity:1;marker-end:url(#Arrow2Lend)" />
          <path
             inkscape:connection-end="#path5018"
             inkscape:connection-start="#path2818-0"
             inkscape:connector-type="polyline"
             id="path5459"
             d="m 153.84696,279.50504 32.85714,0"
             style="fill:none;stroke:#000000;stroke-width:1px;stroke-linecap:butt;stroke-linejoin:miter;stroke-opacity:1;marker-end:url(#Arrow2Lend)" />
        </g>
      </g>
      <path
         transform="translate(161.24055,353.07766)"
         d="m 197.14286,401.64789 c 0,12.22916 -9.9137,22.14285 -22.14286,22.14285 -12.22916,0 -22.14286,-9.91369 -22.14286,-22.14285 0,-12.22916 9.9137,-22.14286 22.14286,-22.14286 12.22916,0 22.14286,9.9137 22.14286,22.14286 z"
         sodipodi:ry="22.142857"
         sodipodi:rx="22.142857"
         sodipodi:cy="401.64789"
         sodipodi:cx="175"
         id="path5509"
         style="opacity:0.76799999;fill:none;stroke:#000000;stroke-width:2;stroke-miterlimit:4;stroke-opacity:1;stroke-dasharray:none"
         sodipodi:type="arc" />
      <path
         d="m 197.14286,401.64789 c 0,12.22916 -9.9137,22.14285 -22.14286,22.14285 -12.22916,0 -22.14286,-9.91369 -22.14286,-22.14285 0,-12.22916 9.9137,-22.14286 22.14286,-22.14286 12.22916,0 22.14286,9.9137 22.14286,22.14286 z"
         sodipodi:ry="22.142857"
         sodipodi:rx="22.142857"
         sodipodi:cy="401.64789"
         sodipodi:cx="175"
         id="path5511"
         style="opacity:0.76799999;fill:none;stroke:#000000;stroke-width:2;stroke-miterlimit:4;stroke-opacity:1;stroke-dasharray:none"
         sodipodi:type="arc"
         transform="translate(161.23761,196.39334)" />
      <path
         transform="translate(161.23467,274.74433)"
         sodipodi:type="arc"
         style="opacity:0.76799999;fill:none;stroke:#000000;stroke-width:2;stroke-miterlimit:4;stroke-opacity:1;stroke-dasharray:none"
         id="path5513"
         sodipodi:cx="175"
         sodipodi:cy="401.64789"
         sodipodi:rx="22.142857"
         sodipodi:ry="22.142857"
         d="m 197.14286,401.64789 c 0,12.22916 -9.9137,22.14285 -22.14286,22.14285 -12.22916,0 -22.14286,-9.91369 -22.14286,-22.14285 0,-12.22916 9.9137,-22.14286 22.14286,-22.14286 12.22916,0 22.14286,9.9137 22.14286,22.14286 z" />
      <path
         sodipodi:type="arc"
         style="opacity:0.76799999;fill:none;stroke:#000000;stroke-width:2;stroke-miterlimit:4;stroke-opacity:1;stroke-dasharray:none"
         id="path5515"
         sodipodi:cx="175"
         sodipodi:cy="401.64789"
         sodipodi:rx="22.142857"
         sodipodi:ry="22.142857"
         d="m 197.14286,401.64789 c 0,12.22916 -9.9137,22.14285 -22.14286,22.14285 -12.22916,0 -22.14286,-9.91369 -22.14286,-22.14285 0,-12.22916 9.9137,-22.14286 22.14286,-22.14286 12.22916,0 22.14286,9.9137 22.14286,22.14286 z"
         transform="translate(161.23173,430.70949)" />
      <path
         sodipodi:type="arc"
         style="opacity:0.76799999;fill:none;stroke:#000000;stroke-width:2;stroke-miterlimit:4;stroke-opacity:1;stroke-dasharray:none"
         id="path5523"
         sodipodi:cx="175"
         sodipodi:cy="401.64789"
         sodipodi:rx="22.142857"
         sodipodi:ry="22.142857"
         d="m 197.14286,401.64789 c 0,12.22916 -9.9137,22.14285 -22.14286,22.14285 -12.22916,0 -22.14286,-9.91369 -22.14286,-22.14285 0,-12.22916 9.9137,-22.14286 22.14286,-22.14286 12.22916,0 22.14286,9.9137 22.14286,22.14286 z"
         transform="translate(238.38047,430.70949)" />
      <path
         transform="translate(238.38047,196.39334)"
         sodipodi:type="arc"
         style="opacity:0.76799999;fill:none;stroke:#000000;stroke-width:2;stroke-miterlimit:4;stroke-opacity:1;stroke-dasharray:none"
         id="path5525"
         sodipodi:cx="175"
         sodipodi:cy="401.64789"
         sodipodi:rx="22.142857"
         sodipodi:ry="22.142857"
         d="m 197.14286,401.64789 c 0,12.22916 -9.9137,22.14285 -22.14286,22.14285 -12.22916,0 -22.14286,-9.91369 -22.14286,-22.14285 0,-12.22916 9.9137,-22.14286 22.14286,-22.14286 12.22916,0 22.14286,9.9137 22.14286,22.14286 z" />
      <path
         style="fill:none;stroke:#000000;stroke-width:1;stroke-linecap:butt;stroke-linejoin:miter;stroke-miterlimit:4;stroke-opacity:1;stroke-dasharray:none;marker-end:url(#Arrow2Lend)"
         d="m 336.21527,698.13087 0,34.22051"
         id="path5499"
         inkscape:connector-type="polyline" />
      <path
         inkscape:connector-type="polyline"
         id="path5561"
         d="m 336.23729,620.20117 -0.003,36.19157"
         style="fill:none;stroke:#000000;stroke-width:0.99895233px;stroke-linecap:butt;stroke-linejoin:miter;stroke-opacity:1;marker-end:url(#Arrow2Lend)" />
      <path
         inkscape:connector-type="polyline"
         id="path5581"
         d="m 336.24012,776.86629 -0.0105,33.33753"
         style="fill:none;stroke:#000000;stroke-width:1.01884937px;stroke-linecap:butt;stroke-linejoin:miter;stroke-opacity:1;marker-end:url(#Arrow2Lend)" />
      <path
         inkscape:connection-end="#path5525"
         inkscape:connection-start="#path5511"
         inkscape:connector-type="polyline"
         id="path5959"
         d="m 358.38047,598.04123 32.85714,0"
         style="fill:none;stroke:#000000;stroke-width:1px;stroke-linecap:butt;stroke-linejoin:miter;stroke-opacity:1;marker-end:url(#Arrow2Lend)" />
      <path
         inkscape:connection-end="#path5523"
         inkscape:connection-start="#path5515"
         inkscape:connector-type="polyline"
         id="path5961"
         d="m 358.37459,832.35738 32.86302,0"
         style="fill:none;stroke:#000000;stroke-width:1px;stroke-linecap:butt;stroke-linejoin:miter;stroke-opacity:1;marker-end:url(#Arrow2Lend)" />
    </g>
  </g>
</svg>
