<?xml version="1.0" encoding="UTF-8" standalone="no"?>
<!-- Created with Inkscape (http://www.inkscape.org/) -->

<svg
   xmlns:dc="http://purl.org/dc/elements/1.1/"
   xmlns:cc="http://creativecommons.org/ns#"
   xmlns:rdf="http://www.w3.org/1999/02/22-rdf-syntax-ns#"
   xmlns:svg="http://www.w3.org/2000/svg"
   xmlns="http://www.w3.org/2000/svg"
   xmlns:sodipodi="http://sodipodi.sourceforge.net/DTD/sodipodi-0.dtd"
   xmlns:inkscape="http://www.inkscape.org/namespaces/inkscape"
   width="744.09448819"
   height="1052.3622047"
   id="svg2"
   version="1.1"
   inkscape:version="0.47pre4 r22446"
   sodipodi:docname="DiagramReqtoDirGI.svg">
  <defs
     id="defs4">
    <marker
       inkscape:stockid="Arrow2Lend"
       orient="auto"
       refY="0.0"
       refX="0.0"
       id="Arrow2Lend"
       style="overflow:visible;">
      <path
         id="path3834"
         style="font-size:12.0;fill-rule:evenodd;stroke-width:0.62500000;stroke-linejoin:round;"
         d="M 8.7185878,4.0337352 L -2.2072895,0.016013256 L 8.7185884,-4.0017078 C 6.9730900,-1.6296469 6.9831476,1.6157441 8.7185878,4.0337352 z "
         transform="scale(1.1) rotate(180) translate(1,0)" />
    </marker>
    <marker
       inkscape:stockid="Arrow2Mend"
       orient="auto"
       refY="0.0"
       refX="0.0"
       id="Arrow2Mend"
       style="overflow:visible;">
      <path
         id="path3840"
         style="font-size:12.0;fill-rule:evenodd;stroke-width:0.62500000;stroke-linejoin:round;"
         d="M 8.7185878,4.0337352 L -2.2072895,0.016013256 L 8.7185884,-4.0017078 C 6.9730900,-1.6296469 6.9831476,1.6157441 8.7185878,4.0337352 z "
         transform="scale(0.6) rotate(180) translate(0,0)" />
    </marker>
    <inkscape:perspective
       sodipodi:type="inkscape:persp3d"
       inkscape:vp_x="0 : 526.18109 : 1"
       inkscape:vp_y="0 : 1000 : 0"
       inkscape:vp_z="744.09448 : 526.18109 : 1"
       inkscape:persp3d-origin="372.04724 : 350.78739 : 1"
       id="perspective10" />
    <inkscape:perspective
       id="perspective2828"
       inkscape:persp3d-origin="0.5 : 0.33333333 : 1"
       inkscape:vp_z="1 : 0.5 : 1"
       inkscape:vp_y="0 : 1000 : 0"
       inkscape:vp_x="0 : 0.5 : 1"
       sodipodi:type="inkscape:persp3d" />
  </defs>
  <sodipodi:namedview
     id="base"
     pagecolor="#ffffff"
     bordercolor="#666666"
     borderopacity="1.0"
     inkscape:pageopacity="0.0"
     inkscape:pageshadow="2"
     inkscape:zoom="0.7"
     inkscape:cx="55.625561"
     inkscape:cy="478.24261"
     inkscape:document-units="px"
     inkscape:current-layer="layer1"
     showgrid="false"
     inkscape:snap-center="true"
     inkscape:window-width="1440"
     inkscape:window-height="826"
     inkscape:window-x="0"
     inkscape:window-y="25"
     inkscape:window-maximized="1" />
  <metadata
     id="metadata7">
    <rdf:RDF>
      <cc:Work
         rdf:about="">
        <dc:format>image/svg+xml</dc:format>
        <dc:type
           rdf:resource="http://purl.org/dc/dcmitype/StillImage" />
        <dc:title></dc:title>
      </cc:Work>
    </rdf:RDF>
  </metadata>
  <g
     inkscape:label="Layer 1"
     inkscape:groupmode="layer"
     id="layer1">
    <g
       id="g6396">
      <g
         transform="translate(201.67636,-5.7495143)"
         id="g5400">
        <path
           sodipodi:type="arc"
           style="opacity:0.76799999;fill:none;stroke:#000000;stroke-width:2;stroke-miterlimit:4;stroke-opacity:1;stroke-dasharray:none"
           id="path2818"
           sodipodi:cx="175"
           sodipodi:cy="401.64789"
           sodipodi:rx="22.142857"
           sodipodi:ry="22.142857"
           d="m 197.14286,401.64789 c 0,12.22916 -9.9137,22.14285 -22.14286,22.14285 -12.22916,0 -22.14286,-9.91369 -22.14286,-22.14285 0,-12.22916 9.9137,-22.14286 22.14286,-22.14286 12.22916,0 22.14286,9.9137 22.14286,22.14286 z"
           transform="translate(-43.292961,34.523851)" />
        <path
           transform="translate(-43.295899,-122.14285)"
           sodipodi:type="arc"
           style="opacity:0.76799999;fill:none;stroke:#000000;stroke-width:2;stroke-miterlimit:4;stroke-opacity:1;stroke-dasharray:none"
           id="path2818-0"
           sodipodi:cx="175"
           sodipodi:cy="401.64789"
           sodipodi:rx="22.142857"
           sodipodi:ry="22.142857"
           d="m 197.14286,401.64789 c 0,12.22916 -9.9137,22.14285 -22.14286,22.14285 -12.22916,0 -22.14286,-9.91369 -22.14286,-22.14285 0,-12.22916 9.9137,-22.14286 22.14286,-22.14286 12.22916,0 22.14286,9.9137 22.14286,22.14286 z" />
        <path
           d="m 197.14286,401.64789 c 0,12.22916 -9.9137,22.14285 -22.14286,22.14285 -12.22916,0 -22.14286,-9.91369 -22.14286,-22.14285 0,-12.22916 9.9137,-22.14286 22.14286,-22.14286 12.22916,0 22.14286,9.9137 22.14286,22.14286 z"
           sodipodi:ry="22.142857"
           sodipodi:rx="22.142857"
           sodipodi:cy="401.64789"
           sodipodi:cx="175"
           id="path2842"
           style="opacity:0.76799999;fill:none;stroke:#000000;stroke-width:2;stroke-miterlimit:4;stroke-opacity:1;stroke-dasharray:none"
           sodipodi:type="arc"
           transform="translate(-43.298836,-43.809483)" />
        <path
           transform="translate(-43.301773,112.85716)"
           d="m 197.14286,401.64789 c 0,12.22916 -9.9137,22.14285 -22.14286,22.14285 -12.22916,0 -22.14286,-9.91369 -22.14286,-22.14285 0,-12.22916 9.9137,-22.14286 22.14286,-22.14286 12.22916,0 22.14286,9.9137 22.14286,22.14286 z"
           sodipodi:ry="22.142857"
           sodipodi:rx="22.142857"
           sodipodi:cy="401.64789"
           sodipodi:cx="175"
           id="path2844"
           style="opacity:0.76799999;fill:none;stroke:#000000;stroke-width:2;stroke-miterlimit:4;stroke-opacity:1;stroke-dasharray:none"
           sodipodi:type="arc" />
        <path
           style="fill:none;stroke:#000000;stroke-width:1;stroke-linecap:butt;stroke-linejoin:miter;stroke-miterlimit:4;stroke-opacity:1;stroke-dasharray:none;marker-end:url(#Arrow2Lend)"
           d="m 131.70327,301.64789 -0.001,34.04766"
           id="path2846"
           inkscape:connector-type="polyline"
           inkscape:connection-start="#path2818-0"
           inkscape:connection-end="#path2842" />
        <path
           style="fill:none;stroke:#000000;stroke-width:1px;stroke-linecap:butt;stroke-linejoin:miter;stroke-opacity:1;marker-end:url(#Arrow2Lend)"
           d="m 131.70455,458.3146 -0.004,34.04759"
           id="path2852"
           inkscape:connector-type="polyline"
           inkscape:connection-start="#path2818"
           inkscape:connection-end="#path2844" />
        <path
           style="fill:none;stroke:#000000;stroke-width:1;stroke-linecap:butt;stroke-linejoin:miter;stroke-miterlimit:4;stroke-opacity:1;stroke-dasharray:none;marker-end:url(#Arrow2Lend)"
           d="m 131.68177,379.57706 0,34.22051"
           id="path4818"
           inkscape:connector-type="polyline" />
        <path
           transform="translate(33.849896,34.523851)"
           d="m 197.14286,401.64789 c 0,12.22916 -9.9137,22.14285 -22.14286,22.14285 -12.22916,0 -22.14286,-9.91369 -22.14286,-22.14285 0,-12.22916 9.9137,-22.14286 22.14286,-22.14286 12.22916,0 22.14286,9.9137 22.14286,22.14286 z"
           sodipodi:ry="22.142857"
           sodipodi:rx="22.142857"
           sodipodi:cy="401.64789"
           sodipodi:cx="175"
           id="path5016"
           style="opacity:0.76799999;fill:none;stroke:#000000;stroke-width:2;stroke-miterlimit:4;stroke-opacity:1;stroke-dasharray:none"
           sodipodi:type="arc" />
        <path
           d="m 197.14286,401.64789 c 0,12.22916 -9.9137,22.14285 -22.14286,22.14285 -12.22916,0 -22.14286,-9.91369 -22.14286,-22.14285 0,-12.22916 9.9137,-22.14286 22.14286,-22.14286 12.22916,0 22.14286,9.9137 22.14286,22.14286 z"
           sodipodi:ry="22.142857"
           sodipodi:rx="22.142857"
           sodipodi:cy="401.64789"
           sodipodi:cx="175"
           id="path5018"
           style="opacity:0.76799999;fill:none;stroke:#000000;stroke-width:2;stroke-miterlimit:4;stroke-opacity:1;stroke-dasharray:none"
           sodipodi:type="arc"
           transform="translate(33.846958,-122.14285)" />
        <path
           style="fill:none;stroke:#000000;stroke-width:1px;stroke-linecap:butt;stroke-linejoin:miter;stroke-opacity:1;marker-end:url(#Arrow2Lend)"
           d="m 153.8499,436.17174 32.85714,0"
           id="path5022"
           inkscape:connector-type="polyline"
           inkscape:connection-start="#path2818"
           inkscape:connection-end="#path5016" />
        <path
           style="fill:none;stroke:#000000;stroke-width:1px;stroke-linecap:butt;stroke-linejoin:miter;stroke-opacity:1;marker-end:url(#Arrow2Lend)"
           d="m 153.84696,279.50504 32.85714,0"
           id="path5024"
           inkscape:connector-type="polyline"
           inkscape:connection-start="#path2818-0"
           inkscape:connection-end="#path5018" />
      </g>
      <g
         transform="translate(27.390646,-5.7319)"
         id="g5413">
        <path
           transform="translate(-43.292961,34.523851)"
           d="m 197.14286,401.64789 c 0,12.22916 -9.9137,22.14285 -22.14286,22.14285 -12.22916,0 -22.14286,-9.91369 -22.14286,-22.14285 0,-12.22916 9.9137,-22.14286 22.14286,-22.14286 12.22916,0 22.14286,9.9137 22.14286,22.14286 z"
           sodipodi:ry="22.142857"
           sodipodi:rx="22.142857"
           sodipodi:cy="401.64789"
           sodipodi:cx="175"
           id="path5415"
           style="opacity:0.76799999;fill:none;stroke:#000000;stroke-width:2;stroke-miterlimit:4;stroke-opacity:1;stroke-dasharray:none"
           sodipodi:type="arc" />
        <path
           d="m 197.14286,401.64789 c 0,12.22916 -9.9137,22.14285 -22.14286,22.14285 -12.22916,0 -22.14286,-9.91369 -22.14286,-22.14285 0,-12.22916 9.9137,-22.14286 22.14286,-22.14286 12.22916,0 22.14286,9.9137 22.14286,22.14286 z"
           sodipodi:ry="22.142857"
           sodipodi:rx="22.142857"
           sodipodi:cy="401.64789"
           sodipodi:cx="175"
           id="path5417"
           style="opacity:0.76799999;fill:none;stroke:#000000;stroke-width:2;stroke-miterlimit:4;stroke-opacity:1;stroke-dasharray:none"
           sodipodi:type="arc"
           transform="translate(-43.295899,-122.14285)" />
        <path
           transform="translate(-43.298836,-43.809483)"
           sodipodi:type="arc"
           style="opacity:0.76799999;fill:none;stroke:#000000;stroke-width:2;stroke-miterlimit:4;stroke-opacity:1;stroke-dasharray:none"
           id="path5419"
           sodipodi:cx="175"
           sodipodi:cy="401.64789"
           sodipodi:rx="22.142857"
           sodipodi:ry="22.142857"
           d="m 197.14286,401.64789 c 0,12.22916 -9.9137,22.14285 -22.14286,22.14285 -12.22916,0 -22.14286,-9.91369 -22.14286,-22.14285 0,-12.22916 9.9137,-22.14286 22.14286,-22.14286 12.22916,0 22.14286,9.9137 22.14286,22.14286 z" />
        <path
           sodipodi:type="arc"
           style="opacity:0.76799999;fill:none;stroke:#000000;stroke-width:2;stroke-miterlimit:4;stroke-opacity:1;stroke-dasharray:none"
           id="path5421"
           sodipodi:cx="175"
           sodipodi:cy="401.64789"
           sodipodi:rx="22.142857"
           sodipodi:ry="22.142857"
           d="m 197.14286,401.64789 c 0,12.22916 -9.9137,22.14285 -22.14286,22.14285 -12.22916,0 -22.14286,-9.91369 -22.14286,-22.14285 0,-12.22916 9.9137,-22.14286 22.14286,-22.14286 12.22916,0 22.14286,9.9137 22.14286,22.14286 z"
           transform="translate(-43.301773,112.85716)" />
        <path
           inkscape:connection-end="#path2842"
           inkscape:connection-start="#path2818-0"
           inkscape:connector-type="polyline"
           id="path5423"
           d="m 131.70327,301.64789 -0.001,34.04766"
           style="fill:none;stroke:#000000;stroke-width:1;stroke-linecap:butt;stroke-linejoin:miter;stroke-miterlimit:4;stroke-opacity:1;stroke-dasharray:none;marker-end:url(#Arrow2Lend)" />
        <path
           inkscape:connection-end="#path2844"
           inkscape:connection-start="#path2818"
           inkscape:connector-type="polyline"
           id="path5425"
           d="m 131.70455,458.3146 -0.004,34.04759"
           style="fill:none;stroke:#000000;stroke-width:1px;stroke-linecap:butt;stroke-linejoin:miter;stroke-opacity:1;marker-end:url(#Arrow2Lend)" />
        <path
           inkscape:connector-type="polyline"
           id="path5427"
           d="m 131.68177,379.57706 0,34.22051"
           style="fill:none;stroke:#000000;stroke-width:1;stroke-linecap:butt;stroke-linejoin:miter;stroke-miterlimit:4;stroke-opacity:1;stroke-dasharray:none;marker-end:url(#Arrow2Lend)" />
        <path
           sodipodi:type="arc"
           style="opacity:0.76799999;fill:none;stroke:#000000;stroke-width:2;stroke-miterlimit:4;stroke-opacity:1;stroke-dasharray:none"
           id="path5429"
           sodipodi:cx="175"
           sodipodi:cy="401.64789"
           sodipodi:rx="22.142857"
           sodipodi:ry="22.142857"
           d="m 197.14286,401.64789 c 0,12.22916 -9.9137,22.14285 -22.14286,22.14285 -12.22916,0 -22.14286,-9.91369 -22.14286,-22.14285 0,-12.22916 9.9137,-22.14286 22.14286,-22.14286 12.22916,0 22.14286,9.9137 22.14286,22.14286 z"
           transform="translate(33.849896,34.523851)" />
        <path
           transform="translate(33.846958,-122.14285)"
           sodipodi:type="arc"
           style="opacity:0.76799999;fill:none;stroke:#000000;stroke-width:2;stroke-miterlimit:4;stroke-opacity:1;stroke-dasharray:none"
           id="path5431"
           sodipodi:cx="175"
           sodipodi:cy="401.64789"
           sodipodi:rx="22.142857"
           sodipodi:ry="22.142857"
           d="m 197.14286,401.64789 c 0,12.22916 -9.9137,22.14285 -22.14286,22.14285 -12.22916,0 -22.14286,-9.91369 -22.14286,-22.14285 0,-12.22916 9.9137,-22.14286 22.14286,-22.14286 12.22916,0 22.14286,9.9137 22.14286,22.14286 z" />
        <path
           inkscape:connection-end="#path5016"
           inkscape:connection-start="#path2818"
           inkscape:connector-type="polyline"
           id="path5433"
           d="m 153.8499,436.17174 32.85714,0"
           style="fill:none;stroke:#000000;stroke-width:1px;stroke-linecap:butt;stroke-linejoin:miter;stroke-opacity:1;marker-end:url(#Arrow2Lend)" />
        <path
           inkscape:connection-end="#path5018"
           inkscape:connection-start="#path2818-0"
           inkscape:connector-type="polyline"
           id="path5435"
           d="m 153.84696,279.50504 32.85714,0"
           style="fill:none;stroke:#000000;stroke-width:1px;stroke-linecap:butt;stroke-linejoin:miter;stroke-opacity:1;marker-end:url(#Arrow2Lend)" />
      </g>
    </g>
  </g>
</svg>
