<?xml version="1.0" encoding="UTF-8" standalone="no"?>
<!-- Created with Inkscape (http://www.inkscape.org/) -->

<svg
   xmlns:dc="http://purl.org/dc/elements/1.1/"
   xmlns:cc="http://creativecommons.org/ns#"
   xmlns:rdf="http://www.w3.org/1999/02/22-rdf-syntax-ns#"
   xmlns:svg="http://www.w3.org/2000/svg"
   xmlns="http://www.w3.org/2000/svg"
   xmlns:sodipodi="http://sodipodi.sourceforge.net/DTD/sodipodi-0.dtd"
   xmlns:inkscape="http://www.inkscape.org/namespaces/inkscape"
   width="744.09448819"
   height="1052.3622047"
   id="svg2"
   version="1.1"
   inkscape:version="0.47pre4 r22446"
   sodipodi:docname="New document 1">
  <defs
     id="defs4">
    <marker
       inkscape:stockid="Arrow2Lend"
       orient="auto"
       refY="0.0"
       refX="0.0"
       id="Arrow2Lend"
       style="overflow:visible;">
      <path
         id="path3834"
         style="font-size:12.0;fill-rule:evenodd;stroke-width:0.62500000;stroke-linejoin:round;"
         d="M 8.7185878,4.0337352 L -2.2072895,0.016013256 L 8.7185884,-4.0017078 C 6.9730900,-1.6296469 6.9831476,1.6157441 8.7185878,4.0337352 z "
         transform="scale(1.1) rotate(180) translate(1,0)" />
    </marker>
    <marker
       inkscape:stockid="Arrow2Mend"
       orient="auto"
       refY="0.0"
       refX="0.0"
       id="Arrow2Mend"
       style="overflow:visible;">
      <path
         id="path3840"
         style="font-size:12.0;fill-rule:evenodd;stroke-width:0.62500000;stroke-linejoin:round;"
         d="M 8.7185878,4.0337352 L -2.2072895,0.016013256 L 8.7185884,-4.0017078 C 6.9730900,-1.6296469 6.9831476,1.6157441 8.7185878,4.0337352 z "
         transform="scale(0.6) rotate(180) translate(0,0)" />
    </marker>
    <inkscape:perspective
       sodipodi:type="inkscape:persp3d"
       inkscape:vp_x="0 : 526.18109 : 1"
       inkscape:vp_y="0 : 1000 : 0"
       inkscape:vp_z="744.09448 : 526.18109 : 1"
       inkscape:persp3d-origin="372.04724 : 350.78739 : 1"
       id="perspective10" />
    <inkscape:perspective
       id="perspective2828"
       inkscape:persp3d-origin="0.5 : 0.33333333 : 1"
       inkscape:vp_z="1 : 0.5 : 1"
       inkscape:vp_y="0 : 1000 : 0"
       inkscape:vp_x="0 : 0.5 : 1"
       sodipodi:type="inkscape:persp3d" />
  </defs>
  <sodipodi:namedview
     id="base"
     pagecolor="#ffffff"
     bordercolor="#666666"
     borderopacity="1.0"
     inkscape:pageopacity="0.0"
     inkscape:pageshadow="2"
     inkscape:zoom="0.7"
     inkscape:cx="55.625561"
     inkscape:cy="429.00563"
     inkscape:document-units="px"
     inkscape:current-layer="layer1"
     showgrid="false"
     inkscape:snap-center="true"
     inkscape:window-width="1440"
     inkscape:window-height="826"
     inkscape:window-x="0"
     inkscape:window-y="25"
     inkscape:window-maximized="1" />
  <metadata
     id="metadata7">
    <rdf:RDF>
      <cc:Work
         rdf:about="">
        <dc:format>image/svg+xml</dc:format>
        <dc:type
           rdf:resource="http://purl.org/dc/dcmitype/StillImage" />
        <dc:title></dc:title>
      </cc:Work>
    </rdf:RDF>
  </metadata>
  <g
     inkscape:label="Layer 1"
     inkscape:groupmode="layer"
     id="layer1">
    <g
       id="g5400"
       transform="translate(201.67636,-5.7495143)">
      <path
         transform="translate(-43.292961,34.523851)"
         d="m 197.14286,401.64789 c 0,12.22916 -9.9137,22.14285 -22.14286,22.14285 -12.22916,0 -22.14286,-9.91369 -22.14286,-22.14285 0,-12.22916 9.9137,-22.14286 22.14286,-22.14286 12.22916,0 22.14286,9.9137 22.14286,22.14286 z"
         sodipodi:ry="22.142857"
         sodipodi:rx="22.142857"
         sodipodi:cy="401.64789"
         sodipodi:cx="175"
         id="path2818"
         style="opacity:0.76799999;fill:none;stroke:#000000;stroke-width:2;stroke-miterlimit:4;stroke-opacity:1;stroke-dasharray:none"
         sodipodi:type="arc" />
      <path
         d="m 197.14286,401.64789 c 0,12.22916 -9.9137,22.14285 -22.14286,22.14285 -12.22916,0 -22.14286,-9.91369 -22.14286,-22.14285 0,-12.22916 9.9137,-22.14286 22.14286,-22.14286 12.22916,0 22.14286,9.9137 22.14286,22.14286 z"
         sodipodi:ry="22.142857"
         sodipodi:rx="22.142857"
         sodipodi:cy="401.64789"
         sodipodi:cx="175"
         id="path2818-0"
         style="opacity:0.76799999;fill:none;stroke:#000000;stroke-width:2;stroke-miterlimit:4;stroke-opacity:1;stroke-dasharray:none"
         sodipodi:type="arc"
         transform="translate(-43.295899,-122.14285)" />
      <path
         transform="translate(-43.298836,-43.809483)"
         sodipodi:type="arc"
         style="opacity:0.76799999;fill:none;stroke:#000000;stroke-width:2;stroke-miterlimit:4;stroke-opacity:1;stroke-dasharray:none"
         id="path2842"
         sodipodi:cx="175"
         sodipodi:cy="401.64789"
         sodipodi:rx="22.142857"
         sodipodi:ry="22.142857"
         d="m 197.14286,401.64789 c 0,12.22916 -9.9137,22.14285 -22.14286,22.14285 -12.22916,0 -22.14286,-9.91369 -22.14286,-22.14285 0,-12.22916 9.9137,-22.14286 22.14286,-22.14286 12.22916,0 22.14286,9.9137 22.14286,22.14286 z" />
      <path
         sodipodi:type="arc"
         style="opacity:0.76799999;fill:none;stroke:#000000;stroke-width:2;stroke-miterlimit:4;stroke-opacity:1;stroke-dasharray:none"
         id="path2844"
         sodipodi:cx="175"
         sodipodi:cy="401.64789"
         sodipodi:rx="22.142857"
         sodipodi:ry="22.142857"
         d="m 197.14286,401.64789 c 0,12.22916 -9.9137,22.14285 -22.14286,22.14285 -12.22916,0 -22.14286,-9.91369 -22.14286,-22.14285 0,-12.22916 9.9137,-22.14286 22.14286,-22.14286 12.22916,0 22.14286,9.9137 22.14286,22.14286 z"
         transform="translate(-43.301773,112.85716)" />
      <path
         inkscape:connection-end="#path2842"
         inkscape:connection-start="#path2818-0"
         inkscape:connector-type="polyline"
         id="path2846"
         d="m 131.70327,301.64789 -0.001,34.04766"
         style="fill:none;stroke:#000000;stroke-width:1;stroke-linecap:butt;stroke-linejoin:miter;stroke-miterlimit:4;stroke-opacity:1;stroke-dasharray:none;marker-end:url(#Arrow2Lend)" />
      <path
         inkscape:connection-end="#path2844"
         inkscape:connection-start="#path2818"
         inkscape:connector-type="polyline"
         id="path2852"
         d="m 131.70455,458.3146 -0.004,34.04759"
         style="fill:none;stroke:#000000;stroke-width:1px;stroke-linecap:butt;stroke-linejoin:miter;stroke-opacity:1;marker-end:url(#Arrow2Lend)" />
      <path
         inkscape:connector-type="polyline"
         id="path4818"
         d="m 131.68177,379.57706 0,34.22051"
         style="fill:none;stroke:#000000;stroke-width:1;stroke-linecap:butt;stroke-linejoin:miter;stroke-miterlimit:4;stroke-opacity:1;stroke-dasharray:none;marker-end:url(#Arrow2Lend)" />
      <path
         sodipodi:type="arc"
         style="opacity:0.76799999;fill:none;stroke:#000000;stroke-width:2;stroke-miterlimit:4;stroke-opacity:1;stroke-dasharray:none"
         id="path5016"
         sodipodi:cx="175"
         sodipodi:cy="401.64789"
         sodipodi:rx="22.142857"
         sodipodi:ry="22.142857"
         d="m 197.14286,401.64789 c 0,12.22916 -9.9137,22.14285 -22.14286,22.14285 -12.22916,0 -22.14286,-9.91369 -22.14286,-22.14285 0,-12.22916 9.9137,-22.14286 22.14286,-22.14286 12.22916,0 22.14286,9.9137 22.14286,22.14286 z"
         transform="translate(33.849896,34.523851)" />
      <path
         transform="translate(33.846958,-122.14285)"
         sodipodi:type="arc"
         style="opacity:0.76799999;fill:none;stroke:#000000;stroke-width:2;stroke-miterlimit:4;stroke-opacity:1;stroke-dasharray:none"
         id="path5018"
         sodipodi:cx="175"
         sodipodi:cy="401.64789"
         sodipodi:rx="22.142857"
         sodipodi:ry="22.142857"
         d="m 197.14286,401.64789 c 0,12.22916 -9.9137,22.14285 -22.14286,22.14285 -12.22916,0 -22.14286,-9.91369 -22.14286,-22.14285 0,-12.22916 9.9137,-22.14286 22.14286,-22.14286 12.22916,0 22.14286,9.9137 22.14286,22.14286 z" />
      <path
         inkscape:connection-end="#path5016"
         inkscape:connection-start="#path2818"
         inkscape:connector-type="polyline"
         id="path5022"
         d="m 153.8499,436.17174 32.85714,0"
         style="fill:none;stroke:#000000;stroke-width:1px;stroke-linecap:butt;stroke-linejoin:miter;stroke-opacity:1;marker-end:url(#Arrow2Lend)" />
      <path
         inkscape:connection-end="#path5018"
         inkscape:connection-start="#path2818-0"
         inkscape:connector-type="polyline"
         id="path5024"
         d="m 153.84696,279.50504 32.85714,0"
         style="fill:none;stroke:#000000;stroke-width:1px;stroke-linecap:butt;stroke-linejoin:miter;stroke-opacity:1;marker-end:url(#Arrow2Lend)" />
    </g>
    <g
       id="g5413"
       transform="translate(27.390646,-5.7319)">
      <path
         sodipodi:type="arc"
         style="opacity:0.76799999;fill:none;stroke:#000000;stroke-width:2;stroke-miterlimit:4;stroke-opacity:1;stroke-dasharray:none"
         id="path5415"
         sodipodi:cx="175"
         sodipodi:cy="401.64789"
         sodipodi:rx="22.142857"
         sodipodi:ry="22.142857"
         d="m 197.14286,401.64789 c 0,12.22916 -9.9137,22.14285 -22.14286,22.14285 -12.22916,0 -22.14286,-9.91369 -22.14286,-22.14285 0,-12.22916 9.9137,-22.14286 22.14286,-22.14286 12.22916,0 22.14286,9.9137 22.14286,22.14286 z"
         transform="translate(-43.292961,34.523851)" />
      <path
         transform="translate(-43.295899,-122.14285)"
         sodipodi:type="arc"
         style="opacity:0.76799999;fill:none;stroke:#000000;stroke-width:2;stroke-miterlimit:4;stroke-opacity:1;stroke-dasharray:none"
         id="path5417"
         sodipodi:cx="175"
         sodipodi:cy="401.64789"
         sodipodi:rx="22.142857"
         sodipodi:ry="22.142857"
         d="m 197.14286,401.64789 c 0,12.22916 -9.9137,22.14285 -22.14286,22.14285 -12.22916,0 -22.14286,-9.91369 -22.14286,-22.14285 0,-12.22916 9.9137,-22.14286 22.14286,-22.14286 12.22916,0 22.14286,9.9137 22.14286,22.14286 z" />
      <path
         d="m 197.14286,401.64789 c 0,12.22916 -9.9137,22.14285 -22.14286,22.14285 -12.22916,0 -22.14286,-9.91369 -22.14286,-22.14285 0,-12.22916 9.9137,-22.14286 22.14286,-22.14286 12.22916,0 22.14286,9.9137 22.14286,22.14286 z"
         sodipodi:ry="22.142857"
         sodipodi:rx="22.142857"
         sodipodi:cy="401.64789"
         sodipodi:cx="175"
         id="path5419"
         style="opacity:0.76799999;fill:none;stroke:#000000;stroke-width:2;stroke-miterlimit:4;stroke-opacity:1;stroke-dasharray:none"
         sodipodi:type="arc"
         transform="translate(-43.298836,-43.809483)" />
      <path
         transform="translate(-43.301773,112.85716)"
         d="m 197.14286,401.64789 c 0,12.22916 -9.9137,22.14285 -22.14286,22.14285 -12.22916,0 -22.14286,-9.91369 -22.14286,-22.14285 0,-12.22916 9.9137,-22.14286 22.14286,-22.14286 12.22916,0 22.14286,9.9137 22.14286,22.14286 z"
         sodipodi:ry="22.142857"
         sodipodi:rx="22.142857"
         sodipodi:cy="401.64789"
         sodipodi:cx="175"
         id="path5421"
         style="opacity:0.76799999;fill:none;stroke:#000000;stroke-width:2;stroke-miterlimit:4;stroke-opacity:1;stroke-dasharray:none"
         sodipodi:type="arc" />
      <path
         style="fill:none;stroke:#000000;stroke-width:1;stroke-linecap:butt;stroke-linejoin:miter;stroke-miterlimit:4;stroke-opacity:1;stroke-dasharray:none;marker-end:url(#Arrow2Lend)"
         d="m 131.70327,301.64789 -0.001,34.04766"
         id="path5423"
         inkscape:connector-type="polyline"
         inkscape:connection-start="#path2818-0"
         inkscape:connection-end="#path2842" />
      <path
         style="fill:none;stroke:#000000;stroke-width:1px;stroke-linecap:butt;stroke-linejoin:miter;stroke-opacity:1;marker-end:url(#Arrow2Lend)"
         d="m 131.70455,458.3146 -0.004,34.04759"
         id="path5425"
         inkscape:connector-type="polyline"
         inkscape:connection-start="#path2818"
         inkscape:connection-end="#path2844" />
      <path
         style="fill:none;stroke:#000000;stroke-width:1;stroke-linecap:butt;stroke-linejoin:miter;stroke-miterlimit:4;stroke-opacity:1;stroke-dasharray:none;marker-end:url(#Arrow2Lend)"
         d="m 131.68177,379.57706 0,34.22051"
         id="path5427"
         inkscape:connector-type="polyline" />
      <path
         transform="translate(33.849896,34.523851)"
         d="m 197.14286,401.64789 c 0,12.22916 -9.9137,22.14285 -22.14286,22.14285 -12.22916,0 -22.14286,-9.91369 -22.14286,-22.14285 0,-12.22916 9.9137,-22.14286 22.14286,-22.14286 12.22916,0 22.14286,9.9137 22.14286,22.14286 z"
         sodipodi:ry="22.142857"
         sodipodi:rx="22.142857"
         sodipodi:cy="401.64789"
         sodipodi:cx="175"
         id="path5429"
         style="opacity:0.76799999;fill:none;stroke:#000000;stroke-width:2;stroke-miterlimit:4;stroke-opacity:1;stroke-dasharray:none"
         sodipodi:type="arc" />
      <path
         d="m 197.14286,401.64789 c 0,12.22916 -9.9137,22.14285 -22.14286,22.14285 -12.22916,0 -22.14286,-9.91369 -22.14286,-22.14285 0,-12.22916 9.9137,-22.14286 22.14286,-22.14286 12.22916,0 22.14286,9.9137 22.14286,22.14286 z"
         sodipodi:ry="22.142857"
         sodipodi:rx="22.142857"
         sodipodi:cy="401.64789"
         sodipodi:cx="175"
         id="path5431"
         style="opacity:0.76799999;fill:none;stroke:#000000;stroke-width:2;stroke-miterlimit:4;stroke-opacity:1;stroke-dasharray:none"
         sodipodi:type="arc"
         transform="translate(33.846958,-122.14285)" />
      <path
         style="fill:none;stroke:#000000;stroke-width:1px;stroke-linecap:butt;stroke-linejoin:miter;stroke-opacity:1;marker-end:url(#Arrow2Lend)"
         d="m 153.8499,436.17174 32.85714,0"
         id="path5433"
         inkscape:connector-type="polyline"
         inkscape:connection-start="#path2818"
         inkscape:connection-end="#path5016" />
      <path
         style="fill:none;stroke:#000000;stroke-width:1px;stroke-linecap:butt;stroke-linejoin:miter;stroke-opacity:1;marker-end:url(#Arrow2Lend)"
         d="m 153.84696,279.50504 32.85714,0"
         id="path5435"
         inkscape:connector-type="polyline"
         inkscape:connection-start="#path2818-0"
         inkscape:connection-end="#path5018" />
    </g>
    <g
       id="g6350">
      <g
         id="g5437"
         transform="translate(27.390646,318.55381)">
        <path
           sodipodi:type="arc"
           style="opacity:0.76799999;fill:none;stroke:#000000;stroke-width:2;stroke-miterlimit:4;stroke-opacity:1;stroke-dasharray:none"
           id="path5439"
           sodipodi:cx="175"
           sodipodi:cy="401.64789"
           sodipodi:rx="22.142857"
           sodipodi:ry="22.142857"
           d="m 197.14286,401.64789 c 0,12.22916 -9.9137,22.14285 -22.14286,22.14285 -12.22916,0 -22.14286,-9.91369 -22.14286,-22.14285 0,-12.22916 9.9137,-22.14286 22.14286,-22.14286 12.22916,0 22.14286,9.9137 22.14286,22.14286 z"
           transform="translate(-43.292961,34.523851)" />
        <path
           transform="translate(-43.295899,-122.14285)"
           sodipodi:type="arc"
           style="opacity:0.76799999;fill:none;stroke:#000000;stroke-width:2;stroke-miterlimit:4;stroke-opacity:1;stroke-dasharray:none"
           id="path5441"
           sodipodi:cx="175"
           sodipodi:cy="401.64789"
           sodipodi:rx="22.142857"
           sodipodi:ry="22.142857"
           d="m 197.14286,401.64789 c 0,12.22916 -9.9137,22.14285 -22.14286,22.14285 -12.22916,0 -22.14286,-9.91369 -22.14286,-22.14285 0,-12.22916 9.9137,-22.14286 22.14286,-22.14286 12.22916,0 22.14286,9.9137 22.14286,22.14286 z" />
        <path
           d="m 197.14286,401.64789 c 0,12.22916 -9.9137,22.14285 -22.14286,22.14285 -12.22916,0 -22.14286,-9.91369 -22.14286,-22.14285 0,-12.22916 9.9137,-22.14286 22.14286,-22.14286 12.22916,0 22.14286,9.9137 22.14286,22.14286 z"
           sodipodi:ry="22.142857"
           sodipodi:rx="22.142857"
           sodipodi:cy="401.64789"
           sodipodi:cx="175"
           id="path5443"
           style="opacity:0.76799999;fill:none;stroke:#000000;stroke-width:2;stroke-miterlimit:4;stroke-opacity:1;stroke-dasharray:none"
           sodipodi:type="arc"
           transform="translate(-43.298836,-43.809483)" />
        <path
           transform="translate(-43.301773,112.85716)"
           d="m 197.14286,401.64789 c 0,12.22916 -9.9137,22.14285 -22.14286,22.14285 -12.22916,0 -22.14286,-9.91369 -22.14286,-22.14285 0,-12.22916 9.9137,-22.14286 22.14286,-22.14286 12.22916,0 22.14286,9.9137 22.14286,22.14286 z"
           sodipodi:ry="22.142857"
           sodipodi:rx="22.142857"
           sodipodi:cy="401.64789"
           sodipodi:cx="175"
           id="path5445"
           style="opacity:0.76799999;fill:none;stroke:#000000;stroke-width:2;stroke-miterlimit:4;stroke-opacity:1;stroke-dasharray:none"
           sodipodi:type="arc" />
        <path
           style="fill:none;stroke:#000000;stroke-width:1;stroke-linecap:butt;stroke-linejoin:miter;stroke-miterlimit:4;stroke-opacity:1;stroke-dasharray:none;marker-end:url(#Arrow2Lend)"
           d="m 131.70327,301.64789 -0.001,34.04766"
           id="path5447"
           inkscape:connector-type="polyline"
           inkscape:connection-start="#path2818-0"
           inkscape:connection-end="#path2842" />
        <path
           style="fill:none;stroke:#000000;stroke-width:1px;stroke-linecap:butt;stroke-linejoin:miter;stroke-opacity:1;marker-end:url(#Arrow2Lend)"
           d="m 131.70455,458.3146 -0.004,34.04759"
           id="path5449"
           inkscape:connector-type="polyline"
           inkscape:connection-start="#path2818"
           inkscape:connection-end="#path2844" />
        <path
           style="fill:none;stroke:#000000;stroke-width:1;stroke-linecap:butt;stroke-linejoin:miter;stroke-miterlimit:4;stroke-opacity:1;stroke-dasharray:none;marker-end:url(#Arrow2Lend)"
           d="m 131.68177,379.57706 0,34.22051"
           id="path5451"
           inkscape:connector-type="polyline" />
        <path
           transform="translate(33.849896,34.523851)"
           d="m 197.14286,401.64789 c 0,12.22916 -9.9137,22.14285 -22.14286,22.14285 -12.22916,0 -22.14286,-9.91369 -22.14286,-22.14285 0,-12.22916 9.9137,-22.14286 22.14286,-22.14286 12.22916,0 22.14286,9.9137 22.14286,22.14286 z"
           sodipodi:ry="22.142857"
           sodipodi:rx="22.142857"
           sodipodi:cy="401.64789"
           sodipodi:cx="175"
           id="path5453"
           style="opacity:0.76799999;fill:none;stroke:#000000;stroke-width:2;stroke-miterlimit:4;stroke-opacity:1;stroke-dasharray:none"
           sodipodi:type="arc" />
        <path
           d="m 197.14286,401.64789 c 0,12.22916 -9.9137,22.14285 -22.14286,22.14285 -12.22916,0 -22.14286,-9.91369 -22.14286,-22.14285 0,-12.22916 9.9137,-22.14286 22.14286,-22.14286 12.22916,0 22.14286,9.9137 22.14286,22.14286 z"
           sodipodi:ry="22.142857"
           sodipodi:rx="22.142857"
           sodipodi:cy="401.64789"
           sodipodi:cx="175"
           id="path5455"
           style="opacity:0.76799999;fill:none;stroke:#000000;stroke-width:2;stroke-miterlimit:4;stroke-opacity:1;stroke-dasharray:none"
           sodipodi:type="arc"
           transform="translate(33.846958,-122.14285)" />
        <path
           style="fill:none;stroke:#000000;stroke-width:1px;stroke-linecap:butt;stroke-linejoin:miter;stroke-opacity:1;marker-end:url(#Arrow2Lend)"
           d="m 153.8499,436.17174 32.85714,0"
           id="path5457"
           inkscape:connector-type="polyline"
           inkscape:connection-start="#path2818"
           inkscape:connection-end="#path5016" />
        <path
           style="fill:none;stroke:#000000;stroke-width:1px;stroke-linecap:butt;stroke-linejoin:miter;stroke-opacity:1;marker-end:url(#Arrow2Lend)"
           d="m 153.84696,279.50504 32.85714,0"
           id="path5459"
           inkscape:connector-type="polyline"
           inkscape:connection-start="#path2818-0"
           inkscape:connection-end="#path5018" />
      </g>
    </g>
    <path
       style="fill:none;stroke:#000000;stroke-width:1;stroke-linecap:butt;stroke-linejoin:miter;stroke-miterlimit:4;stroke-opacity:1;stroke-dasharray:none;marker-end:url(#Arrow2Lend)"
       d="m 270.02691,-12.62021 -10e-4,34.04766"
       id="path5517"
       inkscape:connector-type="polyline" />
    <path
       style="fill:none;stroke:#000000;stroke-width:1;stroke-linecap:butt;stroke-linejoin:miter;stroke-miterlimit:4;stroke-opacity:1;stroke-dasharray:none;marker-end:url(#Arrow2Lend)"
       d="m 262.86255,69.59468 0,34.22051"
       id="path5521"
       inkscape:connector-type="polyline" />
    <path
       sodipodi:type="arc"
       style="opacity:0.76799999;fill:none;stroke:#000000;stroke-width:2;stroke-miterlimit:4;stroke-opacity:1;stroke-dasharray:none"
       id="path5509"
       sodipodi:cx="175"
       sodipodi:cy="401.64789"
       sodipodi:rx="22.142857"
       sodipodi:ry="22.142857"
       d="m 197.14286,401.64789 a 22.142857,22.142857 0 1 1 -44.28572,0 22.142857,22.142857 0 1 1 44.28572,0 z"
       transform="translate(161.24055,353.07766)" />
    <path
       transform="translate(161.23761,196.39334)"
       sodipodi:type="arc"
       style="opacity:0.76799999;fill:none;stroke:#000000;stroke-width:2;stroke-miterlimit:4;stroke-opacity:1;stroke-dasharray:none"
       id="path5511"
       sodipodi:cx="175"
       sodipodi:cy="401.64789"
       sodipodi:rx="22.142857"
       sodipodi:ry="22.142857"
       d="m 197.14286,401.64789 a 22.142857,22.142857 0 1 1 -44.28572,0 22.142857,22.142857 0 1 1 44.28572,0 z" />
    <path
       d="m 197.14286,401.64789 a 22.142857,22.142857 0 1 1 -44.28572,0 22.142857,22.142857 0 1 1 44.28572,0 z"
       sodipodi:ry="22.142857"
       sodipodi:rx="22.142857"
       sodipodi:cy="401.64789"
       sodipodi:cx="175"
       id="path5513"
       style="opacity:0.76799999;fill:none;stroke:#000000;stroke-width:2;stroke-miterlimit:4;stroke-opacity:1;stroke-dasharray:none"
       sodipodi:type="arc"
       transform="translate(161.23467,274.74433)" />
    <path
       transform="translate(161.23173,430.70949)"
       d="m 197.14286,401.64789 a 22.142857,22.142857 0 1 1 -44.28572,0 22.142857,22.142857 0 1 1 44.28572,0 z"
       sodipodi:ry="22.142857"
       sodipodi:rx="22.142857"
       sodipodi:cy="401.64789"
       sodipodi:cx="175"
       id="path5515"
       style="opacity:0.76799999;fill:none;stroke:#000000;stroke-width:2;stroke-miterlimit:4;stroke-opacity:1;stroke-dasharray:none"
       sodipodi:type="arc" />
    <path
       transform="translate(238.38047,430.70949)"
       d="m 197.14286,401.64789 a 22.142857,22.142857 0 1 1 -44.28572,0 22.142857,22.142857 0 1 1 44.28572,0 z"
       sodipodi:ry="22.142857"
       sodipodi:rx="22.142857"
       sodipodi:cy="401.64789"
       sodipodi:cx="175"
       id="path5523"
       style="opacity:0.76799999;fill:none;stroke:#000000;stroke-width:2;stroke-miterlimit:4;stroke-opacity:1;stroke-dasharray:none"
       sodipodi:type="arc" />
    <path
       d="m 197.14286,401.64789 a 22.142857,22.142857 0 1 1 -44.28572,0 22.142857,22.142857 0 1 1 44.28572,0 z"
       sodipodi:ry="22.142857"
       sodipodi:rx="22.142857"
       sodipodi:cy="401.64789"
       sodipodi:cx="175"
       id="path5525"
       style="opacity:0.76799999;fill:none;stroke:#000000;stroke-width:2;stroke-miterlimit:4;stroke-opacity:1;stroke-dasharray:none"
       sodipodi:type="arc"
       transform="translate(238.38047,196.39334)" />
    <path
       inkscape:connector-type="polyline"
       id="path5499"
       d="m 336.21527,698.13087 0,34.22051"
       style="fill:none;stroke:#000000;stroke-width:1;stroke-linecap:butt;stroke-linejoin:miter;stroke-miterlimit:4;stroke-opacity:1;stroke-dasharray:none;marker-end:url(#Arrow2Lend)" />
    <path
       style="fill:none;stroke:#000000;stroke-width:0.99895233px;stroke-linecap:butt;stroke-linejoin:miter;stroke-opacity:1;marker-end:url(#Arrow2Lend)"
       d="m 336.23729,620.20117 -0.003,36.19157"
       id="path5561"
       inkscape:connector-type="polyline" />
    <path
       style="fill:none;stroke:#000000;stroke-width:1.01884937px;stroke-linecap:butt;stroke-linejoin:miter;stroke-opacity:1;marker-end:url(#Arrow2Lend)"
       d="m 336.24012,776.86629 -0.0105,33.33753"
       id="path5581"
       inkscape:connector-type="polyline" />
    <path
       style="fill:none;stroke:#000000;stroke-width:1px;stroke-linecap:butt;stroke-linejoin:miter;stroke-opacity:1;marker-end:url(#Arrow2Lend)"
       d="m 358.38047,598.04123 32.85714,0"
       id="path5959"
       inkscape:connector-type="polyline"
       inkscape:connection-start="#path5511"
       inkscape:connection-end="#path5525" />
    <path
       style="fill:none;stroke:#000000;stroke-width:1px;stroke-linecap:butt;stroke-linejoin:miter;stroke-opacity:1;marker-end:url(#Arrow2Lend)"
       d="m 358.37459,832.35738 32.86302,0"
       id="path5961"
       inkscape:connector-type="polyline"
       inkscape:connection-start="#path5515"
       inkscape:connection-end="#path5523" />
  </g>
</svg>
