<?xml version="1.0" encoding="UTF-8" standalone="no"?>
<!-- Created with Inkscape (http://www.inkscape.org/) -->

<svg
   xmlns:dc="http://purl.org/dc/elements/1.1/"
   xmlns:cc="http://creativecommons.org/ns#"
   xmlns:rdf="http://www.w3.org/1999/02/22-rdf-syntax-ns#"
   xmlns:svg="http://www.w3.org/2000/svg"
   xmlns="http://www.w3.org/2000/svg"
   xmlns:sodipodi="http://sodipodi.sourceforge.net/DTD/sodipodi-0.dtd"
   xmlns:inkscape="http://www.inkscape.org/namespaces/inkscape"
   width="900.49902"
   height="1085.3785"
   id="svg2"
   version="1.1"
   inkscape:version="0.47 r22583"
   sodipodi:docname="rbc_gi.svg"
   inkscape:export-filename="/home/jeff/school/thesis/images/rbc_gi_white.png"
   inkscape:export-xdpi="200"
   inkscape:export-ydpi="200">
  <title
     id="title3091">Reduction from bitcount to graph isomorphism</title>
  <sodipodi:namedview
     id="base"
     pagecolor="#ffffff"
     bordercolor="#666666"
     borderopacity="1.0"
     inkscape:pageopacity="0"
     inkscape:pageshadow="2"
     inkscape:zoom="0.24748738"
     inkscape:cx="-274.41044"
     inkscape:cy="687.75409"
     inkscape:document-units="in"
     inkscape:current-layer="layer1"
     showgrid="true"
     inkscape:window-width="1440"
     inkscape:window-height="825"
     inkscape:window-x="0"
     inkscape:window-y="24"
     inkscape:window-maximized="1"
     inkscape:snap-page="false"
     units="in" />
  <defs
     id="defs4">
    <marker
       style="overflow:visible"
       id="TriangleOutM"
       refX="0"
       refY="0"
       orient="auto"
       inkscape:stockid="TriangleOutM">
      <path
         transform="scale(0.4,0.4)"
         style="fill-rule:evenodd;stroke:#000000;stroke-width:1pt;marker-start:none"
         d="m 5.77,0 -8.65,5 0,-10 8.65,5 z"
         id="path3893" />
    </marker>
  </defs>
  <metadata
     id="metadata7">
    <rdf:RDF>
      <cc:Work
         rdf:about="">
        <dc:format>image/svg+xml</dc:format>
        <dc:type
           rdf:resource="http://purl.org/dc/dcmitype/StillImage" />
        <dc:title>Reduction from bitcount to graph isomorphism</dc:title>
        <cc:license
           rdf:resource="http://creativecommons.org/licenses/by-sa/3.0/" />
        <dc:date>5 April 2010</dc:date>
        <dc:creator>
          <cc:Agent>
            <dc:title>Jeffrey Finkelstein</dc:title>
          </cc:Agent>
        </dc:creator>
      </cc:Work>
      <cc:License
         rdf:about="http://creativecommons.org/licenses/by-sa/3.0/">
        <cc:permits
           rdf:resource="http://creativecommons.org/ns#Reproduction" />
        <cc:permits
           rdf:resource="http://creativecommons.org/ns#Distribution" />
        <cc:requires
           rdf:resource="http://creativecommons.org/ns#Notice" />
        <cc:requires
           rdf:resource="http://creativecommons.org/ns#Attribution" />
        <cc:permits
           rdf:resource="http://creativecommons.org/ns#DerivativeWorks" />
        <cc:requires
           rdf:resource="http://creativecommons.org/ns#ShareAlike" />
      </cc:License>
    </rdf:RDF>
  </metadata>
  <g
     id="layer1"
     inkscape:groupmode="layer"
     inkscape:label="Layer 1"
     transform="translate(-17.121765,254.44048)">
    <flowRoot
       style="font-size:40px;font-style:normal;font-weight:normal;fill:#000000;fill-opacity:1;stroke:none;font-family:Bitstream Vera Sans"
       id="flowRoot2824"
       xml:space="preserve"><flowRegion
         id="flowRegion2826"><rect
           y="-19.066389"
           x="-60"
           height="357.14285"
           width="545.71429"
           id="rect2828" /></flowRegion><flowPara
         id="flowPara2830" /></flowRoot>    <g
       transform="matrix(1.3428806,0,0,1.3428806,-19.435867,-135.69594)"
       id="g2984">
      <text
         xml:space="preserve"
         style="font-size:40px;font-style:normal;font-weight:normal;fill:#000000;fill-opacity:1;stroke:none;font-family:Bitstream Vera Sans"
         x="25.738918"
         y="43.221317"
         id="text2816"><tspan
           sodipodi:role="line"
           id="tspan2818"
           x="25.738918"
           y="43.221317"
           style="font-style:normal;font-variant:normal;font-weight:normal;font-stretch:normal;font-family:DejaVu Sans Mono;-inkscape-font-specification:DejaVu Sans Mono">x 0101</tspan></text>
      <g
         id="g3700"
         transform="translate(-3.8146973e-6,0)">
        <path
           sodipodi:type="arc"
           id="path3608"
           sodipodi:cx="415.71429"
           sodipodi:cy="132.36218"
           sodipodi:rx="44.285713"
           sodipodi:ry="42.857143"
           d="m 460.00001,132.36218 c 0,23.66935 -19.82739,42.85715 -44.28572,42.85715 -24.45832,0 -44.28571,-19.1878 -44.28571,-42.85715 0,-23.66934 19.82739,-42.857141 44.28571,-42.857141 24.45833,0 44.28572,19.187801 44.28572,42.857141 z"
           style="fill:none;stroke:#000000;stroke-width:5.51496983;stroke-miterlimit:4;stroke-opacity:1;stroke-dasharray:none"
           transform="matrix(0.54397395,0,0,0.54397395,174.63937,48.93203)" />
        <path
           transform="matrix(0.54397395,0,0,0.54397395,265.11558,48.93203)"
           style="fill:none;stroke:#000000;stroke-width:5.51496983;stroke-miterlimit:4;stroke-opacity:1;stroke-dasharray:none"
           d="m 460.00001,132.36218 c 0,23.66935 -19.82739,42.85715 -44.28572,42.85715 -24.45832,0 -44.28571,-19.1878 -44.28571,-42.85715 0,-23.66934 19.82739,-42.857141 44.28571,-42.857141 24.45833,0 44.28572,19.187801 44.28572,42.857141 z"
           sodipodi:ry="42.857143"
           sodipodi:rx="44.285713"
           sodipodi:cy="132.36218"
           sodipodi:cx="415.71429"
           id="path3612"
           sodipodi:type="arc" />
        <path
           sodipodi:type="arc"
           id="path3614"
           sodipodi:cx="415.71429"
           sodipodi:cy="132.36218"
           sodipodi:rx="44.285713"
           sodipodi:ry="42.857143"
           d="m 460.00001,132.36218 c 0,23.66935 -19.82739,42.85715 -44.28572,42.85715 -24.45832,0 -44.28571,-19.1878 -44.28571,-42.85715 0,-23.66934 19.82739,-42.857141 44.28571,-42.857141 24.45833,0 44.28572,19.187801 44.28572,42.857141 z"
           style="fill:none;stroke:#000000;stroke-width:5.51496983;stroke-miterlimit:4;stroke-opacity:1;stroke-dasharray:none"
           transform="matrix(0.54397395,0,0,0.54397395,355.59175,48.93203)" />
        <path
           transform="matrix(0.54397395,0,0,0.54397395,446.06795,48.93203)"
           style="fill:none;stroke:#000000;stroke-width:5.51496983;stroke-miterlimit:4;stroke-opacity:1;stroke-dasharray:none"
           d="m 460.00001,132.36218 c 0,23.66935 -19.82739,42.85715 -44.28572,42.85715 -24.45832,0 -44.28571,-19.1878 -44.28571,-42.85715 0,-23.66934 19.82739,-42.857141 44.28571,-42.857141 24.45833,0 44.28572,19.187801 44.28572,42.857141 z"
           sodipodi:ry="42.857143"
           sodipodi:rx="44.285713"
           sodipodi:cy="132.36218"
           sodipodi:cx="415.71429"
           id="path3616"
           sodipodi:type="arc" />
        <path
           sodipodi:type="arc"
           id="path3624"
           sodipodi:cx="415.71429"
           sodipodi:cy="132.36218"
           sodipodi:rx="44.285713"
           sodipodi:ry="42.857143"
           d="m 460.00001,132.36218 c 0,23.66935 -19.82739,42.85715 -44.28572,42.85715 -24.45832,0 -44.28571,-19.1878 -44.28571,-42.85715 0,-23.66934 19.82739,-42.857141 44.28571,-42.857141 24.45833,0 44.28572,19.187801 44.28572,42.857141 z"
           style="fill:none;stroke:#000000;stroke-width:5.51496983;stroke-miterlimit:4;stroke-opacity:1;stroke-dasharray:none"
           transform="matrix(0.54397395,0,0,0.54397395,388.98496,-58.336986)" />
        <path
           transform="matrix(0.54397395,0,0,0.54397395,336.96214,-135.61365)"
           style="fill:none;stroke:#000000;stroke-width:5.51496983;stroke-miterlimit:4;stroke-opacity:1;stroke-dasharray:none"
           d="m 460.00001,132.36218 c 0,23.66935 -19.82739,42.85715 -44.28572,42.85715 -24.45832,0 -44.28571,-19.1878 -44.28571,-42.85715 0,-23.66934 19.82739,-42.857141 44.28571,-42.857141 24.45833,0 44.28572,19.187801 44.28572,42.857141 z"
           sodipodi:ry="42.857143"
           sodipodi:rx="44.285713"
           sodipodi:cy="132.36218"
           sodipodi:cx="415.71429"
           id="path3626"
           sodipodi:type="arc" />
        <path
           sodipodi:type="arc"
           id="path3628"
           sodipodi:cx="415.71429"
           sodipodi:cy="132.36218"
           sodipodi:rx="44.285713"
           sodipodi:ry="42.857143"
           d="m 460.00001,132.36218 c 0,23.66935 -19.82739,42.85715 -44.28572,42.85715 -24.45832,0 -44.28571,-19.1878 -44.28571,-42.85715 0,-23.66934 19.82739,-42.857141 44.28571,-42.857141 24.45833,0 44.28572,19.187801 44.28572,42.857141 z"
           style="fill:none;stroke:#000000;stroke-width:5.51496983;stroke-miterlimit:4;stroke-opacity:1;stroke-dasharray:none"
           transform="matrix(0.54397395,0,0,0.54397395,441.00785,-135.61365)" />
        <path
           inkscape:connection-end="#path3628"
           inkscape:connection-start="#path3624"
           inkscape:connector-type="polyline"
           id="path3630"
           d="M 628.27424,-5.8711619 653.99407,-44.076315"
           style="fill:none;stroke:#000000;stroke-width:3;stroke-linecap:butt;stroke-linejoin:miter;stroke-miterlimit:4;stroke-opacity:1;stroke-dasharray:none" />
        <path
           inkscape:connection-end="#path3626"
           inkscape:connection-start="#path3628"
           inkscape:connector-type="polyline"
           id="path3632"
           d="m 643.05532,-63.612071 -55.86516,0"
           style="fill:none;stroke:#000000;stroke-width:3;stroke-linecap:butt;stroke-linejoin:miter;stroke-miterlimit:4;stroke-opacity:1;stroke-dasharray:none" />
        <path
           inkscape:connection-end="#path3624"
           inkscape:connection-start="#path3626"
           inkscape:connector-type="polyline"
           id="path3634"
           d="m 576.25141,-44.076308 25.71978,38.2051383"
           style="fill:none;stroke:#000000;stroke-width:3;stroke-linecap:butt;stroke-linejoin:miter;stroke-miterlimit:4;stroke-opacity:1;stroke-dasharray:none" />
        <path
           inkscape:connection-end="#path3624"
           inkscape:connection-start="#path3612"
           inkscape:connector-type="polyline"
           id="path3638"
           d="M 509.20555,105.38726 597.17049,29.210944"
           style="fill:none;stroke:#000000;stroke-width:3;stroke-linecap:butt;stroke-linejoin:miter;stroke-miterlimit:4;stroke-opacity:1;stroke-dasharray:none" />
        <path
           inkscape:connection-end="#path3624"
           inkscape:connection-start="#path3616"
           inkscape:connector-type="polyline"
           id="path3642"
           d="M 661.17396,100.20303 626.15444,34.395175"
           style="fill:none;stroke:#000000;stroke-width:3;stroke-linecap:butt;stroke-linejoin:miter;stroke-miterlimit:4;stroke-opacity:1;stroke-dasharray:none" />
        <path
           transform="matrix(0.54397395,0,0,0.54397395,223.31994,-58.336986)"
           style="fill:none;stroke:#000000;stroke-width:5.51496983;stroke-miterlimit:4;stroke-opacity:1;stroke-dasharray:none"
           d="m 460.00001,132.36218 c 0,23.66935 -19.82739,42.85715 -44.28572,42.85715 -24.45832,0 -44.28571,-19.1878 -44.28571,-42.85715 0,-23.66934 19.82739,-42.857141 44.28571,-42.857141 24.45833,0 44.28572,19.187801 44.28572,42.857141 z"
           sodipodi:ry="42.857143"
           sodipodi:rx="44.285713"
           sodipodi:cy="132.36218"
           sodipodi:cx="415.71429"
           id="path3646"
           sodipodi:type="arc" />
        <path
           inkscape:connection-end="#path3646"
           inkscape:connection-start="#path3608"
           inkscape:connector-type="polyline"
           id="path3650"
           d="m 410.46645,99.58288 29.3019,-64.567557"
           style="fill:none;stroke:#000000;stroke-width:3;stroke-linecap:butt;stroke-linejoin:miter;stroke-miterlimit:4;stroke-opacity:1;stroke-dasharray:none" />
        <path
           inkscape:connection-end="#path3646"
           inkscape:connection-start="#path3614"
           inkscape:connector-type="polyline"
           id="path3652"
           d="M 563.26491,105.95931 467.92228,28.638897"
           style="fill:none;stroke:#000000;stroke-width:3;stroke-linecap:butt;stroke-linejoin:miter;stroke-miterlimit:4;stroke-opacity:1;stroke-dasharray:none" />
      </g>
      <g
         id="g2877"
         transform="translate(-6.6432552,-1.6258728)">
        <path
           transform="translate(-30.304576,7.0710678)"
           sodipodi:open="true"
           sodipodi:end="5.7595865"
           sodipodi:start="3.6651914"
           d="m 239.65289,11.399985 c 19.24727,-20.7753851 61.87544,-27.893558 95.21269,-15.8988849 10.59582,3.81235403 19.39466,9.295692 25.51216,15.8988829"
           sodipodi:ry="43.436558"
           sodipodi:rx="69.700523"
           sodipodi:cy="33.118263"
           sodipodi:cx="300.01532"
           id="path3740"
           style="fill:none;stroke:#000000;stroke-width:3;stroke-miterlimit:3.9000001;stroke-opacity:1;stroke-dasharray:none;stroke-dashoffset:0;marker-end:url(#TriangleOutM)"
           sodipodi:type="arc" />
        <text
           id="text2873"
           y="-30.521349"
           x="259.10855"
           style="font-size:40px;font-style:normal;font-variant:normal;font-weight:normal;font-stretch:normal;fill:#000000;fill-opacity:1;stroke:none;font-family:LMMathExtension10;-inkscape-font-specification:LMMathExtension10"
           xml:space="preserve"><tspan
             style="font-style:italic;font-variant:normal;font-weight:bold;font-stretch:normal;font-family:LMMathItalic8;-inkscape-font-specification:LMMathItalic8 Bold Italic"
             y="-30.521349"
             x="259.10855"
             id="tspan2875"
             sodipodi:role="line">f</tspan></text>
      </g>
    </g>
    <g
       transform="matrix(1.3428806,0,0,1.3428806,-19.435867,-135.69594)"
       id="g2960">
      <text
         xml:space="preserve"
         style="font-size:40px;font-style:normal;font-weight:normal;fill:#000000;fill-opacity:1;stroke:none;font-family:Bitstream Vera Sans"
         x="25.192043"
         y="327.23785"
         id="text2820"><tspan
           sodipodi:role="line"
           id="tspan2822"
           x="25.192043"
           y="327.23785"
           style="font-style:normal;font-variant:normal;font-weight:normal;font-stretch:normal;font-family:DejaVu Sans Mono;-inkscape-font-specification:DejaVu Sans Mono">y 1100</tspan></text>
      <g
         id="g3717"
         transform="translate(-3.8146973e-6,10.409363)">
        <path
           transform="matrix(0.54397395,0,0,0.54397395,174.63937,336.82551)"
           style="fill:none;stroke:#000000;stroke-width:5.51496983;stroke-miterlimit:4;stroke-opacity:1;stroke-dasharray:none"
           d="m 460.00001,132.36218 c 0,23.66935 -19.82739,42.85715 -44.28572,42.85715 -24.45832,0 -44.28571,-19.1878 -44.28571,-42.85715 0,-23.66934 19.82739,-42.857141 44.28571,-42.857141 24.45833,0 44.28572,19.187801 44.28572,42.857141 z"
           sodipodi:ry="42.857143"
           sodipodi:rx="44.285713"
           sodipodi:cy="132.36218"
           sodipodi:cx="415.71429"
           id="path3662"
           sodipodi:type="arc" />
        <path
           sodipodi:type="arc"
           id="path3664"
           sodipodi:cx="415.71429"
           sodipodi:cy="132.36218"
           sodipodi:rx="44.285713"
           sodipodi:ry="42.857143"
           d="m 460.00001,132.36218 c 0,23.66935 -19.82739,42.85715 -44.28572,42.85715 -24.45832,0 -44.28571,-19.1878 -44.28571,-42.85715 0,-23.66934 19.82739,-42.857141 44.28571,-42.857141 24.45833,0 44.28572,19.187801 44.28572,42.857141 z"
           style="fill:none;stroke:#000000;stroke-width:5.51496983;stroke-miterlimit:4;stroke-opacity:1;stroke-dasharray:none"
           transform="matrix(0.54397395,0,0,0.54397395,265.11558,336.82551)" />
        <path
           transform="matrix(0.54397395,0,0,0.54397395,355.59175,336.82551)"
           style="fill:none;stroke:#000000;stroke-width:5.51496983;stroke-miterlimit:4;stroke-opacity:1;stroke-dasharray:none"
           d="m 460.00001,132.36218 c 0,23.66935 -19.82739,42.85715 -44.28572,42.85715 -24.45832,0 -44.28571,-19.1878 -44.28571,-42.85715 0,-23.66934 19.82739,-42.857141 44.28571,-42.857141 24.45833,0 44.28572,19.187801 44.28572,42.857141 z"
           sodipodi:ry="42.857143"
           sodipodi:rx="44.285713"
           sodipodi:cy="132.36218"
           sodipodi:cx="415.71429"
           id="path3666"
           sodipodi:type="arc" />
        <path
           sodipodi:type="arc"
           id="path3668"
           sodipodi:cx="415.71429"
           sodipodi:cy="132.36218"
           sodipodi:rx="44.285713"
           sodipodi:ry="42.857143"
           d="m 460.00001,132.36218 c 0,23.66935 -19.82739,42.85715 -44.28572,42.85715 -24.45832,0 -44.28571,-19.1878 -44.28571,-42.85715 0,-23.66934 19.82739,-42.857141 44.28571,-42.857141 24.45833,0 44.28572,19.187801 44.28572,42.857141 z"
           style="fill:none;stroke:#000000;stroke-width:5.51496983;stroke-miterlimit:4;stroke-opacity:1;stroke-dasharray:none"
           transform="matrix(0.54397395,0,0,0.54397395,446.06795,336.82551)" />
        <path
           transform="matrix(0.54397395,0,0,0.54397395,388.98496,229.55649)"
           style="fill:none;stroke:#000000;stroke-width:5.51496983;stroke-miterlimit:4;stroke-opacity:1;stroke-dasharray:none"
           d="m 460.00001,132.36218 c 0,23.66935 -19.82739,42.85715 -44.28572,42.85715 -24.45832,0 -44.28571,-19.1878 -44.28571,-42.85715 0,-23.66934 19.82739,-42.857141 44.28571,-42.857141 24.45833,0 44.28572,19.187801 44.28572,42.857141 z"
           sodipodi:ry="42.857143"
           sodipodi:rx="44.285713"
           sodipodi:cy="132.36218"
           sodipodi:cx="415.71429"
           id="path3670"
           sodipodi:type="arc" />
        <path
           sodipodi:type="arc"
           id="path3672"
           sodipodi:cx="415.71429"
           sodipodi:cy="132.36218"
           sodipodi:rx="44.285713"
           sodipodi:ry="42.857143"
           d="m 460.00001,132.36218 c 0,23.66935 -19.82739,42.85715 -44.28572,42.85715 -24.45832,0 -44.28571,-19.1878 -44.28571,-42.85715 0,-23.66934 19.82739,-42.857141 44.28571,-42.857141 24.45833,0 44.28572,19.187801 44.28572,42.857141 z"
           style="fill:none;stroke:#000000;stroke-width:5.51496983;stroke-miterlimit:4;stroke-opacity:1;stroke-dasharray:none"
           transform="matrix(0.54397395,0,0,0.54397395,336.96214,152.27983)" />
        <path
           transform="matrix(0.54397395,0,0,0.54397395,441.00785,152.27983)"
           style="fill:none;stroke:#000000;stroke-width:5.51496983;stroke-miterlimit:4;stroke-opacity:1;stroke-dasharray:none"
           d="m 460.00001,132.36218 c 0,23.66935 -19.82739,42.85715 -44.28572,42.85715 -24.45832,0 -44.28571,-19.1878 -44.28571,-42.85715 0,-23.66934 19.82739,-42.857141 44.28571,-42.857141 24.45833,0 44.28572,19.187801 44.28572,42.857141 z"
           sodipodi:ry="42.857143"
           sodipodi:rx="44.285713"
           sodipodi:cy="132.36218"
           sodipodi:cx="415.71429"
           id="path3674"
           sodipodi:type="arc" />
        <path
           style="fill:none;stroke:#000000;stroke-width:3;stroke-linecap:butt;stroke-linejoin:miter;stroke-miterlimit:4;stroke-opacity:1;stroke-dasharray:none"
           d="m 628.27424,282.02231 25.71983,-38.20515"
           id="path3676"
           inkscape:connector-type="polyline" />
        <path
           style="fill:none;stroke:#000000;stroke-width:3;stroke-linecap:butt;stroke-linejoin:miter;stroke-miterlimit:4;stroke-opacity:1;stroke-dasharray:none"
           d="m 643.05532,224.2814 -55.86516,0"
           id="path3678"
           inkscape:connector-type="polyline" />
        <path
           style="fill:none;stroke:#000000;stroke-width:3;stroke-linecap:butt;stroke-linejoin:miter;stroke-miterlimit:4;stroke-opacity:1;stroke-dasharray:none"
           d="m 576.25141,243.81717 25.71978,38.20514"
           id="path3680"
           inkscape:connector-type="polyline" />
        <path
           sodipodi:type="arc"
           id="path3686"
           sodipodi:cx="415.71429"
           sodipodi:cy="132.36218"
           sodipodi:rx="44.285713"
           sodipodi:ry="42.857143"
           d="m 460.00001,132.36218 c 0,23.66935 -19.82739,42.85715 -44.28572,42.85715 -24.45832,0 -44.28571,-19.1878 -44.28571,-42.85715 0,-23.66934 19.82739,-42.857141 44.28571,-42.857141 24.45833,0 44.28572,19.187801 44.28572,42.857141 z"
           style="fill:none;stroke:#000000;stroke-width:5.51496983;stroke-miterlimit:4;stroke-opacity:1;stroke-dasharray:none"
           transform="matrix(0.54397395,0,0,0.54397395,223.31994,229.55649)" />
        <path
           inkscape:connection-end="#path3670"
           inkscape:connection-start="#path3662"
           inkscape:connector-type="polyline"
           id="path3692"
           d="M 422.17994,398.11607 593.71989,312.26909"
           style="fill:none;stroke:#000000;stroke-width:3;stroke-linecap:butt;stroke-linejoin:miter;stroke-miterlimit:4;stroke-opacity:1;stroke-dasharray:none" />
        <path
           inkscape:connection-end="#path3670"
           inkscape:connection-start="#path3664"
           inkscape:connector-type="polyline"
           id="path3694"
           d="m 509.20555,393.28074 87.96494,-76.17632"
           style="fill:none;stroke:#000000;stroke-width:3;stroke-linecap:butt;stroke-linejoin:miter;stroke-miterlimit:4;stroke-opacity:1;stroke-dasharray:none" />
        <path
           inkscape:connection-end="#path3686"
           inkscape:connection-start="#path3666"
           inkscape:connector-type="polyline"
           id="path3696"
           d="M 563.26491,393.85279 467.92227,316.53237"
           style="fill:none;stroke:#000000;stroke-width:3;stroke-linecap:butt;stroke-linejoin:miter;stroke-miterlimit:4;stroke-opacity:1;stroke-dasharray:none" />
        <path
           inkscape:connection-end="#path3686"
           inkscape:connection-start="#path3668"
           inkscape:connector-type="polyline"
           id="path3698"
           d="M 650.63349,398.43854 471.0299,311.94662"
           style="fill:none;stroke:#000000;stroke-width:3;stroke-linecap:butt;stroke-linejoin:miter;stroke-miterlimit:4;stroke-opacity:1;stroke-dasharray:none" />
      </g>
      <g
         id="g2882"
         transform="translate(-6.6432552,296.98484)">
        <path
           sodipodi:type="arc"
           style="fill:none;stroke:#000000;stroke-width:3;stroke-miterlimit:3.9000001;stroke-opacity:1;stroke-dasharray:none;stroke-dashoffset:0;marker-end:url(#TriangleOutM)"
           id="path2884"
           sodipodi:cx="300.01532"
           sodipodi:cy="33.118263"
           sodipodi:rx="69.700523"
           sodipodi:ry="43.436558"
           d="m 239.65289,11.399985 c 19.24727,-20.7753851 61.87544,-27.893558 95.21269,-15.8988849 10.59582,3.81235403 19.39466,9.295692 25.51216,15.8988829"
           sodipodi:start="3.6651914"
           sodipodi:end="5.7595865"
           sodipodi:open="true"
           transform="translate(-30.304576,7.0710678)" />
        <text
           xml:space="preserve"
           style="font-size:40px;font-style:normal;font-variant:normal;font-weight:normal;font-stretch:normal;fill:#000000;fill-opacity:1;stroke:none;font-family:LMMathExtension10;-inkscape-font-specification:LMMathExtension10"
           x="259.10855"
           y="-30.521349"
           id="text2886"><tspan
             sodipodi:role="line"
             id="tspan2888"
             x="259.10855"
             y="-30.521349"
             style="font-style:italic;font-variant:normal;font-weight:bold;font-stretch:normal;font-family:LMMathItalic8;-inkscape-font-specification:LMMathItalic8 Bold Italic">f</tspan></text>
      </g>
    </g>
    <g
       id="g4009"
       transform="matrix(1.3428806,0,0,1.3428806,-5.8707198,-284.91251)">
      <text
         id="text2890"
         y="714.12628"
         x="15.090514"
         style="font-size:40px;font-style:normal;font-weight:normal;fill:#000000;fill-opacity:1;stroke:none;font-family:Bitstream Vera Sans"
         xml:space="preserve"><tspan
           style="font-style:normal;font-variant:normal;font-weight:normal;font-stretch:normal;font-family:DejaVu Sans Mono;-inkscape-font-specification:DejaVu Sans Mono"
           y="714.12628"
           x="15.090514"
           id="tspan2892"
           sodipodi:role="line">z 1101</tspan></text>
      <g
         transform="translate(-16.744784,683.87327)"
         id="g2926">
        <path
           transform="translate(-30.304576,7.0710678)"
           sodipodi:open="true"
           sodipodi:end="5.7595865"
           sodipodi:start="3.6651914"
           d="m 239.65289,11.399985 c 19.24727,-20.7753851 61.87544,-27.893558 95.21269,-15.8988849 10.59582,3.81235403 19.39466,9.295692 25.51216,15.8988829"
           sodipodi:ry="43.436558"
           sodipodi:rx="69.700523"
           sodipodi:cy="33.118263"
           sodipodi:cx="300.01532"
           id="path2928"
           style="fill:none;stroke:#000000;stroke-width:3;stroke-miterlimit:3.9000001;stroke-opacity:1;stroke-dasharray:none;stroke-dashoffset:0;marker-end:url(#TriangleOutM)"
           sodipodi:type="arc" />
        <text
           id="text2930"
           y="-30.521349"
           x="259.10855"
           style="font-size:40px;font-style:normal;font-variant:normal;font-weight:normal;font-stretch:normal;fill:#000000;fill-opacity:1;stroke:none;font-family:LMMathExtension10;-inkscape-font-specification:LMMathExtension10"
           xml:space="preserve"><tspan
             style="font-style:italic;font-variant:normal;font-weight:bold;font-stretch:normal;font-family:LMMathItalic8;-inkscape-font-specification:LMMathItalic8 Bold Italic"
             y="-30.521349"
             x="259.10855"
             id="tspan2932"
             sodipodi:role="line">f</tspan></text>
      </g>
      <g
         id="g3992">
        <path
           sodipodi:type="arc"
           id="path2896"
           sodipodi:cx="415.71429"
           sodipodi:cy="132.36218"
           sodipodi:rx="44.285713"
           sodipodi:ry="42.857143"
           d="m 460.00001,132.36218 c 0,23.66935 -19.82739,42.85715 -44.28572,42.85715 -24.45832,0 -44.28571,-19.1878 -44.28571,-42.85715 0,-23.66934 19.82739,-42.857141 44.28571,-42.857141 24.45833,0 44.28572,19.187801 44.28572,42.857141 z"
           style="fill:none;stroke:#000000;stroke-width:5.51496983;stroke-miterlimit:4;stroke-opacity:1;stroke-dasharray:none"
           transform="matrix(0.54397395,0,0,0.54397395,164.53784,734.1233)" />
        <path
           transform="matrix(0.54397395,0,0,0.54397395,255.01405,734.1233)"
           style="fill:none;stroke:#000000;stroke-width:5.51496983;stroke-miterlimit:4;stroke-opacity:1;stroke-dasharray:none"
           d="m 460.00001,132.36218 c 0,23.66935 -19.82739,42.85715 -44.28572,42.85715 -24.45832,0 -44.28571,-19.1878 -44.28571,-42.85715 0,-23.66934 19.82739,-42.857141 44.28571,-42.857141 24.45833,0 44.28572,19.187801 44.28572,42.857141 z"
           sodipodi:ry="42.857143"
           sodipodi:rx="44.285713"
           sodipodi:cy="132.36218"
           sodipodi:cx="415.71429"
           id="path2898"
           sodipodi:type="arc" />
        <path
           sodipodi:type="arc"
           id="path2900"
           sodipodi:cx="415.71429"
           sodipodi:cy="132.36218"
           sodipodi:rx="44.285713"
           sodipodi:ry="42.857143"
           d="m 460.00001,132.36218 c 0,23.66935 -19.82739,42.85715 -44.28572,42.85715 -24.45832,0 -44.28571,-19.1878 -44.28571,-42.85715 0,-23.66934 19.82739,-42.857141 44.28571,-42.857141 24.45833,0 44.28572,19.187801 44.28572,42.857141 z"
           style="fill:none;stroke:#000000;stroke-width:5.51496983;stroke-miterlimit:4;stroke-opacity:1;stroke-dasharray:none"
           transform="matrix(0.54397395,0,0,0.54397395,345.49022,734.1233)" />
        <path
           transform="matrix(0.54397395,0,0,0.54397395,435.96642,734.1233)"
           style="fill:none;stroke:#000000;stroke-width:5.51496983;stroke-miterlimit:4;stroke-opacity:1;stroke-dasharray:none"
           d="m 460.00001,132.36218 c 0,23.66935 -19.82739,42.85715 -44.28572,42.85715 -24.45832,0 -44.28571,-19.1878 -44.28571,-42.85715 0,-23.66934 19.82739,-42.857141 44.28571,-42.857141 24.45833,0 44.28572,19.187801 44.28572,42.857141 z"
           sodipodi:ry="42.857143"
           sodipodi:rx="44.285713"
           sodipodi:cy="132.36218"
           sodipodi:cx="415.71429"
           id="path2902"
           sodipodi:type="arc" />
        <path
           sodipodi:type="arc"
           id="path2904"
           sodipodi:cx="415.71429"
           sodipodi:cy="132.36218"
           sodipodi:rx="44.285713"
           sodipodi:ry="42.857143"
           d="m 460.00001,132.36218 c 0,23.66935 -19.82739,42.85715 -44.28572,42.85715 -24.45832,0 -44.28571,-19.1878 -44.28571,-42.85715 0,-23.66934 19.82739,-42.857141 44.28571,-42.857141 24.45833,0 44.28572,19.187801 44.28572,42.857141 z"
           style="fill:none;stroke:#000000;stroke-width:5.51496983;stroke-miterlimit:4;stroke-opacity:1;stroke-dasharray:none"
           transform="matrix(0.54397395,0,0,0.54397395,378.88343,626.85428)" />
        <path
           transform="matrix(0.54397395,0,0,0.54397395,326.86061,549.57762)"
           style="fill:none;stroke:#000000;stroke-width:5.51496983;stroke-miterlimit:4;stroke-opacity:1;stroke-dasharray:none"
           d="m 460.00001,132.36218 c 0,23.66935 -19.82739,42.85715 -44.28572,42.85715 -24.45832,0 -44.28571,-19.1878 -44.28571,-42.85715 0,-23.66934 19.82739,-42.857141 44.28571,-42.857141 24.45833,0 44.28572,19.187801 44.28572,42.857141 z"
           sodipodi:ry="42.857143"
           sodipodi:rx="44.285713"
           sodipodi:cy="132.36218"
           sodipodi:cx="415.71429"
           id="path2906"
           sodipodi:type="arc" />
        <path
           sodipodi:type="arc"
           id="path2908"
           sodipodi:cx="415.71429"
           sodipodi:cy="132.36218"
           sodipodi:rx="44.285713"
           sodipodi:ry="42.857143"
           d="m 460.00001,132.36218 c 0,23.66935 -19.82739,42.85715 -44.28572,42.85715 -24.45832,0 -44.28571,-19.1878 -44.28571,-42.85715 0,-23.66934 19.82739,-42.857141 44.28571,-42.857141 24.45833,0 44.28572,19.187801 44.28572,42.857141 z"
           style="fill:none;stroke:#000000;stroke-width:5.51496983;stroke-miterlimit:4;stroke-opacity:1;stroke-dasharray:none"
           transform="matrix(0.54397395,0,0,0.54397395,430.90632,549.57762)" />
        <path
           inkscape:connector-type="polyline"
           id="path2910"
           d="m 618.17271,679.3201 25.71983,-38.20515"
           style="fill:none;stroke:#000000;stroke-width:3;stroke-linecap:butt;stroke-linejoin:miter;stroke-miterlimit:4;stroke-opacity:1;stroke-dasharray:none" />
        <path
           inkscape:connector-type="polyline"
           id="path2912"
           d="m 632.95379,621.57919 -55.86516,0"
           style="fill:none;stroke:#000000;stroke-width:3;stroke-linecap:butt;stroke-linejoin:miter;stroke-miterlimit:4;stroke-opacity:1;stroke-dasharray:none" />
        <path
           inkscape:connector-type="polyline"
           id="path2914"
           d="m 566.14988,641.11496 25.71978,38.20514"
           style="fill:none;stroke:#000000;stroke-width:3;stroke-linecap:butt;stroke-linejoin:miter;stroke-miterlimit:4;stroke-opacity:1;stroke-dasharray:none" />
        <path
           transform="matrix(0.54397395,0,0,0.54397395,213.21841,626.85428)"
           style="fill:none;stroke:#000000;stroke-width:5.51496983;stroke-miterlimit:4;stroke-opacity:1;stroke-dasharray:none"
           d="m 460.00001,132.36218 c 0,23.66935 -19.82739,42.85715 -44.28572,42.85715 -24.45832,0 -44.28571,-19.1878 -44.28571,-42.85715 0,-23.66934 19.82739,-42.857141 44.28571,-42.857141 24.45833,0 44.28572,19.187801 44.28572,42.857141 z"
           sodipodi:ry="42.857143"
           sodipodi:rx="44.285713"
           sodipodi:cy="132.36218"
           sodipodi:cx="415.71429"
           id="path2916"
           sodipodi:type="arc" />
        <path
           inkscape:connection-end="#path2904"
           inkscape:connection-start="#path2896"
           inkscape:connector-type="polyline"
           id="path3182"
           d="M 412.07841,795.41386 583.61836,709.56688"
           style="fill:none;stroke:#000000;stroke-width:3;stroke-linecap:butt;stroke-linejoin:miter;stroke-miterlimit:4;stroke-opacity:1;stroke-dasharray:none" />
        <path
           inkscape:connection-end="#path2904"
           inkscape:connection-start="#path2898"
           inkscape:connector-type="polyline"
           id="path3184"
           d="m 499.10402,790.57853 87.96494,-76.17632"
           style="fill:none;stroke:#000000;stroke-width:3;stroke-linecap:butt;stroke-linejoin:miter;stroke-miterlimit:4;stroke-opacity:1;stroke-dasharray:none" />
        <path
           inkscape:connection-end="#path2916"
           inkscape:connection-start="#path2900"
           inkscape:connector-type="polyline"
           id="path3186"
           d="M 553.16338,791.15058 457.82074,713.83016"
           style="fill:none;stroke:#000000;stroke-width:3;stroke-linecap:butt;stroke-linejoin:miter;stroke-miterlimit:4;stroke-opacity:1;stroke-dasharray:none" />
        <path
           inkscape:connection-end="#path2904"
           inkscape:connection-start="#path2902"
           inkscape:connector-type="polyline"
           id="path3188"
           d="M 651.07243,785.3943 616.05291,719.58644"
           style="fill:none;stroke:#000000;stroke-width:3;stroke-linecap:butt;stroke-linejoin:miter;stroke-miterlimit:4;stroke-opacity:1;stroke-dasharray:none" />
      </g>
    </g>
  </g>
</svg>
